<?xml version="1.0" standalone="no"?>
<!DOCTYPE svg PUBLIC "-//W3C//DTD SVG 20010904//EN"
 "http://www.w3.org/TR/2001/REC-SVG-20010904/DTD/svg10.dtd">
<svg version="1.0" xmlns="http://www.w3.org/2000/svg"
 width="786.000000pt" height="730.000000pt" viewBox="0 0 786.000000 730.000000"
 preserveAspectRatio="xMidYMid meet">

<g transform="translate(0.000000,730.000000) scale(0.100000,-0.100000)"
fill="#000000" stroke="none">
<path d="M0 3650 c0 -3643 0 -3650 20 -3650 20 0 20 7 22 1268 1 697 3 1236 5
1197 3 -73 25 -871 44 -1605 6 -234 14 -481 17 -550 7 -121 8 -125 34 -139 30
-17 74 -8 89 19 5 8 49 89 97 180 49 91 106 197 127 235 21 39 67 124 102 190
36 66 69 124 73 128 4 5 22 -36 40 -90 49 -147 189 -521 216 -575 33 -65 62
-83 108 -68 19 6 37 19 41 28 5 13 23 514 25 685 0 25 8 18 82 -70 266 -320
580 -616 850 -801 l47 -32 1914 0 1914 0 79 57 c296 211 618 531 880 873 l79
102 6 -208 c3 -115 7 -308 8 -430 1 -240 2 -243 60 -263 32 -10 36 -9 63 22
36 39 74 125 179 407 44 118 86 230 93 249 17 44 11 54 121 -225 152 -387 186
-468 198 -476 26 -17 76 -8 91 15 15 22 15 32 77 2054 6 200 9 373 5 387 -7
30 -25 37 -101 42 -33 2 -121 8 -195 15 -74 6 -256 21 -405 33 l-270 21 -6
895 c-3 492 -7 1437 -8 2100 0 663 -4 1275 -8 1361 l-6 155 -156 -38 c-369
-90 -642 -123 -972 -115 -362 8 -588 52 -1021 197 l-206 69 -371 0 c-340 1
-374 -1 -414 -18 -120 -52 -347 -125 -523 -170 -118 -30 -418 -77 -580 -91
-213 -19 -684 -8 -889 19 -189 26 -459 80 -600 119 l-100 29 -6 -581 c-4 -320
-8 -1354 -10 -2298 l-4 -1718 -275 0 c-151 0 -347 5 -434 11 l-160 12 -23 -27
-23 -27 0 2370 c0 2364 0 2371 -20 2371 -20 0 -20 -7 -20 -3650z m4000 3630
c0 -5 -5 -10 -11 -10 -5 0 -7 5 -4 10 3 6 8 10 11 10 2 0 4 -4 4 -10z m214 1
c4 -5 -3 -7 -14 -4 -23 6 -26 13 -6 13 8 0 17 -4 20 -9z m-274 -5 c0 -2 -7 -7
-16 -10 -8 -3 -12 -2 -9 4 6 10 25 14 25 6z m275 -27 c7 -7 0 -8 -20 -3 -16 3
-34 11 -40 17 -7 6 0 7 20 3 17 -4 35 -12 40 -17z m-250 1 c-3 -5 -11 -10 -16
-10 -6 0 -7 5 -4 10 3 6 11 10 16 10 6 0 7 -4 4 -10z m320 0 c3 -5 4 -10 1
-10 -2 0 -12 -3 -20 -6 -12 -5 -15 -2 -10 10 7 18 20 21 29 6z m110 -40 l20
-9 -20 0 c-11 0 -29 4 -40 9 l-20 9 20 0 c11 0 29 -4 40 -9z m8 -57 c-7 -2
-19 -2 -25 0 -7 3 -2 5 12 5 14 0 19 -2 13 -5z m-806 -29 c-3 -3 -12 -4 -19
-1 -8 3 -5 6 6 6 11 1 17 -2 13 -5z m1056 -34 c5 -4 1 -10 -8 -14 -10 -4 -14
-2 -9 5 5 8 -5 10 -30 7 -20 -2 -36 -3 -36 -2 0 1 -3 9 -6 17 -5 13 1 14 38 5
24 -6 47 -14 51 -18z m85 -25 c-3 -3 -9 2 -12 12 -6 14 -5 15 5 6 7 -7 10 -15
7 -18z m-1358 -25 c0 -5 -4 -10 -10 -10 -5 0 -10 5 -10 10 0 6 5 10 10 10 6 0
10 -4 10 -10z m1285 -10 c-3 -5 -10 -10 -16 -10 -5 0 -9 5 -9 10 0 6 7 10 16
10 8 0 12 -4 9 -10z m1974 -34 c-9 -8 -10 -8 -5 1 3 6 1 15 -5 19 -8 4 -7 9 2
15 18 11 25 -19 8 -35z m54 37 c-7 -2 -19 -2 -25 0 -7 3 -2 5 12 5 14 0 19 -2
13 -5z m-5596 -9 c-3 -3 -12 -4 -19 -1 -8 3 -5 6 6 6 11 1 17 -2 13 -5z m2176
-1 c-7 -2 -19 -2 -25 0 -7 3 -2 5 12 5 14 0 19 -2 13 -5z m1691 -2 c4 -5 -3
-7 -14 -4 -23 6 -26 13 -6 13 8 0 17 -4 20 -9z m-3792 -12 c-12 -5 -32 -5 -44
0 -18 6 -13 8 22 8 35 0 40 -2 22 -8z m2158 7 c0 -3 -4 -8 -10 -11 -5 -3 -10
-1 -10 4 0 6 5 11 10 11 6 0 10 -2 10 -4z m3283 -13 c-7 -2 -19 -2 -25 0 -7 3
-2 5 12 5 14 0 19 -2 13 -5z m-3466 -9 c-3 -3 -12 -4 -19 -1 -8 3 -5 6 6 6 11
1 17 -2 13 -5z m141 -1 c-10 -2 -28 -2 -40 0 -13 2 -5 4 17 4 22 1 32 -1 23
-4z m-288 -33 c-8 -5 -19 -10 -25 -10 -5 0 -3 5 5 10 8 5 20 10 25 10 6 0 3
-5 -5 -10z m2210 0 c0 -5 -2 -10 -4 -10 -3 0 -8 5 -11 10 -3 6 -1 10 4 10 6 0
11 -4 11 -10z m57 -6 c-3 -3 -12 -4 -19 -1 -8 3 -5 6 6 6 11 1 17 -2 13 -5z
m1023 -4 c18 -12 2 -12 -25 0 -13 6 -15 9 -5 9 8 0 22 -4 30 -9z m-4897 -7
c-7 -2 -19 -2 -25 0 -7 3 -2 5 12 5 14 0 19 -2 13 -5z m154 1 c-3 -3 -12 -4
-19 -1 -8 3 -5 6 6 6 11 1 17 -2 13 -5z m1350 0 c-3 -3 -12 -4 -19 -1 -8 3 -5
6 6 6 11 1 17 -2 13 -5z m173 -6 c0 -4 -9 -8 -20 -8 -11 0 -20 4 -20 8 0 4 9
8 20 8 11 0 20 -4 20 -8z m2277 6 c-3 -3 -12 -4 -19 -1 -8 3 -5 6 6 6 11 1 17
-2 13 -5z m-2412 -14 c-27 -12 -43 -12 -25 0 8 5 22 9 30 9 10 0 8 -3 -5 -9z
m2305 0 c0 -12 -37 -14 -44 -2 -2 4 6 9 20 10 13 1 24 -3 24 -8z m183 3 c-7
-2 -19 -2 -25 0 -7 3 -2 5 12 5 14 0 19 -2 13 -5z m694 1 c-3 -3 -12 -4 -19
-1 -8 3 -5 6 6 6 11 1 17 -2 13 -5z m-4684 -11 c-7 -2 -21 -2 -30 0 -10 3 -4
5 12 5 17 0 24 -2 18 -5z m4465 -10 c-15 -2 -42 -2 -60 0 -18 2 -6 4 27 4 33
0 48 -2 33 -4z m240 0 c-16 -2 -40 -2 -55 0 -16 2 -3 4 27 4 30 0 43 -2 28 -4z
m-4221 -59 c-3 -3 -12 -4 -19 -1 -8 3 -5 6 6 6 11 1 17 -2 13 -5z m4790 -636
c-1 -112 -2 -21 -2 202 0 223 1 314 2 203 2 -112 2 -294 0 -405z m-2967 441
c0 -6 -4 -7 -10 -4 -5 3 -10 1 -10 -6 0 -7 -3 -10 -6 -6 -10 10 5 39 16 32 5
-3 10 -11 10 -16z m755 11 c3 -5 1 -10 -4 -10 -6 0 -11 5 -11 10 0 6 2 10 4
10 3 0 8 -4 11 -10z m660 -10 c2 -4 -7 -5 -20 -2 -14 2 -25 8 -25 12 0 10 38
1 45 -10z m-3261 -5 c-4 -8 -8 -15 -10 -15 -2 0 -4 7 -4 15 0 8 4 15 10 15 5
0 7 -7 4 -15z m1062 -1 c-3 -9 -6 -18 -6 -20 0 -2 -4 -4 -9 -4 -5 0 -7 9 -4
20 3 11 10 20 15 20 6 0 7 -7 4 -16z m2451 -6 c-3 -8 -6 -5 -6 6 -1 11 2 17 5
13 3 -3 4 -12 1 -19z m33 18 c0 -3 -4 -8 -10 -11 -5 -3 -10 -1 -10 4 0 6 5 11
10 11 6 0 10 -2 10 -4z m-2450 -10 c0 -3 -4 -8 -10 -11 -5 -3 -10 -1 -10 4 0
6 5 11 10 11 6 0 10 -2 10 -4z m60 -6 c0 -5 -4 -10 -10 -10 -5 0 -10 5 -10 10
0 6 5 10 10 10 6 0 10 -4 10 -10z m247 4 c-3 -3 -12 -4 -19 -1 -8 3 -5 6 6 6
11 1 17 -2 13 -5z m49 -6 c4 -6 2 -14 -4 -16 -7 -2 -12 -13 -12 -23 0 -11 -4
-18 -9 -15 -5 4 -11 0 -14 -6 -2 -7 -6 2 -9 20 -4 27 -2 32 16 32 17 0 18 2 6
10 -13 8 -13 10 2 10 9 0 20 -5 24 -12z m594 2 c0 -5 -4 -10 -9 -10 -6 0 -13
5 -16 10 -3 6 1 10 9 10 9 0 16 -4 16 -10z m397 -12 c-3 -8 -6 -5 -6 6 -1 11
2 17 5 13 3 -3 4 -12 1 -19z m83 18 c0 -3 -4 -8 -10 -11 -5 -3 -10 -1 -10 4 0
6 5 11 10 11 6 0 10 -2 10 -4z m143 -3 c-7 -2 -19 -2 -25 0 -7 3 -2 5 12 5 14
0 19 -2 13 -5z m345 0 c-26 -2 -71 -2 -100 0 -29 2 -8 3 47 3 55 0 79 -1 53
-3z m105 0 c-7 -2 -21 -2 -30 0 -10 3 -4 5 12 5 17 0 24 -2 18 -5z m234 -25
c-3 -7 -5 -2 -5 12 0 14 2 19 5 13 2 -7 2 -19 0 -25z m37 -3 c5 -22 4 -26 -4
-15 -5 8 -10 24 -10 34 0 26 6 18 14 -19z m36 31 c0 -2 -7 -6 -15 -10 -8 -3
-15 -1 -15 4 0 6 7 10 15 10 8 0 15 -2 15 -4z m340 -6 c0 -5 -7 -10 -15 -10
-8 0 -15 5 -15 10 0 6 7 10 15 10 8 0 15 -4 15 -10z m209 7 c-2 -1 -12 -9 -21
-16 -15 -12 -18 -11 -18 3 0 10 8 16 22 16 12 0 19 -1 17 -3z m-1202 -13 c-3
-3 -12 -4 -19 -1 -8 3 -5 6 6 6 11 1 17 -2 13 -5z m20 -16 c-3 -8 -6 -5 -6 6
-1 11 2 17 5 13 3 -3 4 -12 1 -19z m406 15 c-7 -2 -19 -2 -25 0 -7 3 -2 5 12
5 14 0 19 -2 13 -5z m92 -3 c3 -5 1 -10 -4 -10 -6 0 -11 5 -11 10 0 6 2 10 4
10 3 0 8 -4 11 -10z m202 4 c-3 -3 -12 -4 -19 -1 -8 3 -5 6 6 6 11 1 17 -2 13
-5z m341 -1 c-10 -2 -26 -2 -35 0 -10 3 -2 5 17 5 19 0 27 -2 18 -5z m75 0
c-7 -2 -21 -2 -30 0 -10 3 -4 5 12 5 17 0 24 -2 18 -5z m-3346 -25 c-3 -8 -6
-5 -6 6 -1 11 2 17 5 13 3 -3 4 -12 1 -19z m1533 6 c0 -2 -7 -4 -15 -4 -8 0
-15 4 -15 10 0 5 7 7 15 4 8 -4 15 -8 15 -10z m1147 10 c-3 -3 -12 -4 -19 -1
-8 3 -5 6 6 6 11 1 17 -2 13 -5z m-840 -51 c-3 -10 -5 -4 -5 12 0 17 2 24 5
18 2 -7 2 -21 0 -30z m360 -235 c-1 -51 -3 -10 -3 92 0 102 2 143 3 93 2 -51
2 -135 0 -185z m538 262 c-4 -6 -1 -17 5 -25 7 -9 8 -15 2 -15 -12 0 -24 29
-16 41 3 5 7 9 10 9 3 0 2 -5 -1 -10z m-1835 -10 c0 -5 -5 -10 -11 -10 -5 0
-7 5 -4 10 3 6 8 10 11 10 2 0 4 -4 4 -10z m630 -6 c0 -2 -7 -4 -15 -4 -8 0
-15 4 -15 10 0 5 7 7 15 4 8 -4 15 -8 15 -10z m-2101 -16 c0 -16 -2 -18 -6 -8
-3 8 -11 18 -17 22 -7 5 -4 8 7 8 11 0 17 -7 16 -22z m1098 0 c-3 -8 -6 -5 -6
6 -1 11 2 17 5 13 3 -3 4 -12 1 -19z m1723 -8 c-1 -23 -2 -24 -14 -7 -11 14
-15 15 -19 5 -3 -7 -6 -3 -6 9 -1 16 4 21 19 20 14 -1 20 -8 20 -27z m530 0
c0 -5 -4 -10 -10 -10 -5 0 -10 5 -10 10 0 6 5 10 10 10 6 0 10 -4 10 -10z
m-2783 -6 c-3 -3 -12 -4 -19 -1 -8 3 -5 6 6 6 11 1 17 -2 13 -5z m1923 -14 c0
-5 -7 -10 -15 -10 -8 0 -15 5 -15 10 0 6 7 10 15 10 8 0 15 -4 15 -10z m-1027
-30 c-7 -28 -13 -25 -13 6 0 14 4 23 9 20 5 -3 7 -15 4 -26z m1897 20 c0 -5
-5 -10 -11 -10 -5 0 -7 5 -4 10 3 6 8 10 11 10 2 0 4 -4 4 -10z m24 -25 c-4
-8 -8 -15 -10 -15 -2 0 -4 7 -4 15 0 8 4 15 10 15 5 0 7 -7 4 -15z m-3374 -3
c0 -5 -7 -9 -15 -9 -8 0 -15 4 -15 9 0 4 7 8 15 8 8 0 15 -4 15 -8z m903 -27
c3 12 5 14 6 5 1 -23 -15 -43 -28 -35 -7 3 -9 15 -6 26 4 11 2 19 -5 19 -6 0
-8 5 -4 12 5 8 12 2 20 -17 10 -25 12 -27 17 -10z m1553 26 c8 7 14 7 14 1 0
-5 -7 -13 -16 -16 -23 -9 -24 -8 -23 12 0 11 2 12 6 4 4 -10 8 -10 19 -1z
m904 -41 c0 -13 -1 -13 -10 0 -5 8 -10 22 -10 30 0 13 1 13 10 0 5 -8 10 -22
10 -30z m-1303 -32 c-2 -13 -4 -3 -4 22 0 25 2 35 4 23 2 -13 2 -33 0 -45z
m727 0 c4 -37 2 -58 -4 -58 -6 0 -10 27 -10 62 0 74 5 73 14 -4z m-377 20 c-3
-8 -6 -5 -6 6 -1 11 2 17 5 13 3 -3 4 -12 1 -19z m1226 15 c-7 -2 -21 -2 -30
0 -10 3 -4 5 12 5 17 0 24 -2 18 -5z m84 1 c-3 -3 -12 -4 -19 -1 -8 3 -5 6 6
6 11 1 17 -2 13 -5z m-2900 -10 c-3 -3 -12 -4 -19 -1 -8 3 -5 6 6 6 11 1 17
-2 13 -5z m43 -10 c0 -2 -7 -4 -15 -4 -8 0 -15 4 -15 10 0 5 7 7 15 4 8 -4 15
-8 15 -10z m-703 -101 c-2 -16 -4 -5 -4 22 0 28 2 40 4 28 2 -13 2 -35 0 -50z
m973 58 c0 -6 -4 -13 -10 -16 -5 -3 -10 1 -10 9 0 9 5 16 10 16 6 0 10 -4 10
-9z m1947 3 c-3 -3 -12 -4 -19 -1 -8 3 -5 6 6 6 11 1 17 -2 13 -5z m-800 -126
c-2 -18 -4 -6 -4 27 0 33 2 48 4 33 2 -15 2 -42 0 -60z m1019 44 c-17 -16 -18
-16 -5 5 7 12 15 20 18 17 3 -2 -3 -12 -13 -22z m-2241 8 c-14 -22 -40 -28
-55 -12 -13 14 -13 15 0 10 8 -3 24 -2 35 3 27 10 27 10 20 -1z m358 -80 c4
-49 3 -70 -3 -60 -9 14 -15 149 -6 139 2 -2 6 -38 9 -79z m415 55 c-3 -3 -9 2
-12 12 -6 14 -5 15 5 6 7 -7 10 -15 7 -18z m-1021 -37 c-3 -8 -6 -5 -6 6 -1
11 2 17 5 13 3 -3 4 -12 1 -19z m2478 12 c-4 -6 -11 -8 -16 -5 -5 4 -9 1 -9
-6 0 -7 -3 -10 -6 -6 -9 9 5 27 22 27 8 0 12 -5 9 -10z m352 -6 c-3 -3 -12 -4
-19 -1 -8 3 -5 6 6 6 11 1 17 -2 13 -5z m-2547 -20 c0 -8 -4 -12 -10 -9 -5 3
-10 10 -10 16 0 5 5 9 10 9 6 0 10 -7 10 -16z m350 -15 c0 -5 -4 -9 -10 -9 -5
0 -10 7 -10 16 0 8 5 12 10 9 6 -3 10 -10 10 -16z m368 6 c2 -2 -14 -6 -34 -9
-20 -4 -41 -3 -46 2 -6 6 1 8 19 5 22 -4 25 -2 13 7 -12 8 -8 9 15 4 17 -4 31
-8 33 -9z m-1651 -102 c-2 -21 -4 -4 -4 37 0 41 2 58 4 38 2 -21 2 -55 0 -75z
m1300 85 c-3 -8 -6 -5 -6 6 -1 11 2 17 5 13 3 -3 4 -12 1 -19z m1370 -111 c-2
-23 -3 -1 -3 48 0 50 1 68 3 42 2 -26 2 -67 0 -90z m-550 1 c-2 -24 -4 -7 -4
37 0 44 2 63 4 43 2 -21 2 -57 0 -80z m40 90 c-3 -8 -6 -5 -6 6 -1 11 2 17 5
13 3 -3 4 -12 1 -19z m258 -12 c0 -15 -4 -21 -9 -16 -5 5 -6 16 -3 24 9 22 12
20 12 -8z m-1448 -18 c-3 -8 -6 -5 -6 6 -1 11 2 17 5 13 3 -3 4 -12 1 -19z
m888 12 c3 -5 1 -10 -4 -10 -6 0 -11 5 -11 10 0 6 2 10 4 10 3 0 8 -4 11 -10z
m1045 -17 c-1 -24 -2 -26 -11 -10 -5 9 -7 22 -4 27 10 17 15 11 15 -17z m-526
-27 c-3 -15 -8 -25 -11 -23 -2 3 -1 17 3 31 3 15 8 25 11 23 2 -3 1 -17 -3
-31z m-2177 -13 c-3 -10 -5 -4 -5 12 0 17 2 24 5 18 2 -7 2 -21 0 -30z m1050
0 c-3 -10 -5 -4 -5 12 0 17 2 24 5 18 2 -7 2 -21 0 -30z m1350 -15 c-2 -13 -4
-5 -4 17 -1 22 1 32 4 23 2 -10 2 -28 0 -40z m-1890 20 c-3 -8 -6 -5 -6 6 -1
11 2 17 5 13 3 -3 4 -12 1 -19z m263 12 c0 -5 -4 -10 -10 -10 -5 0 -10 5 -10
10 0 6 5 10 10 10 6 0 10 -4 10 -10z m841 -27 c-12 -20 -14 -14 -5 12 4 9 9
14 11 11 3 -2 0 -13 -6 -23z m369 11 c0 -8 -5 -12 -10 -9 -6 4 -8 11 -5 16 9
14 15 11 15 -7z m1630 -15 c0 -10 -4 -19 -10 -19 -5 0 -10 5 -10 11 0 5 -5 7
-11 4 -6 -4 -5 2 2 13 15 24 29 20 29 -9z m-3860 -10 c0 -10 -7 -19 -15 -19
-16 0 -19 9 -9 34 8 20 24 11 24 -15z m2200 27 c0 -3 -4 -8 -10 -11 -5 -3 -10
-1 -10 4 0 6 5 11 10 11 6 0 10 -2 10 -4z m467 -18 c-3 -8 -6 -5 -6 6 -1 11 2
17 5 13 3 -3 4 -12 1 -19z m-1613 -4 c11 -28 6 -38 -9 -18 -8 10 -15 22 -15
27 0 13 18 7 24 -9z m-287 -16 c-3 -8 -6 -5 -6 6 -1 11 2 17 5 13 3 -3 4 -12
1 -19z m30 3 c0 -11 -5 -18 -9 -15 -4 3 -5 11 -1 19 7 21 12 19 10 -4z m1074
-4 c-10 -9 -11 -8 -5 6 3 10 9 15 12 12 3 -3 0 -11 -7 -18z m1066 1 c-3 -8 -6
-5 -6 6 -1 11 2 17 5 13 3 -3 4 -12 1 -19z m-497 2 c0 -5 -5 -10 -11 -10 -5 0
-7 5 -4 10 3 6 8 10 11 10 2 0 4 -4 4 -10z m17 -22 c-3 -7 -5 -2 -5 12 0 14 2
19 5 13 2 -7 2 -19 0 -25z m-2397 -20 c0 -5 -4 -8 -10 -8 -5 0 -10 10 -10 23
0 18 2 19 10 7 5 -8 10 -18 10 -22z m1900 2 c5 0 11 7 13 15 4 11 4 10 3 -2
-2 -22 -30 -24 -32 -3 0 9 1 10 3 3 3 -7 8 -13 13 -13z m49 -3 c0 -21 -1 -21
-9 -2 -12 28 -12 37 0 30 6 -3 10 -16 9 -28z m220 -24 c1 -7 -3 -13 -9 -13 -5
0 -10 17 -9 38 1 33 2 34 9 12 4 -14 8 -31 9 -37z m175 23 c-3 -14 -13 -26
-21 -26 -12 0 -12 2 1 16 9 8 16 23 16 31 0 9 2 14 5 11 4 -3 3 -17 -1 -32z
m282 -13 c-8 -16 -12 -18 -14 -8 -4 20 -22 19 -22 0 0 -8 -5 -15 -11 -15 -6 0
-9 10 -7 23 2 15 9 21 21 19 10 -2 17 3 17 13 0 13 3 13 13 3 10 -9 11 -17 3
-35z m1161 15 c-3 -7 -5 -2 -5 12 0 14 2 19 5 13 2 -7 2 -19 0 -25z m-3172 12
c-3 -5 -11 -10 -16 -10 -6 0 -7 5 -4 10 3 6 11 10 16 10 6 0 7 -4 4 -10z m402
-22 c-3 -7 -5 -2 -5 12 0 14 2 19 5 13 2 -7 2 -19 0 -25z m396 25 c-7 -2 -21
-2 -30 0 -10 3 -4 5 12 5 17 0 24 -2 18 -5z m-856 -9 c-3 -3 -12 -4 -19 -1 -8
3 -5 6 6 6 11 1 17 -2 13 -5z m210 0 c-3 -3 -12 -4 -19 -1 -8 3 -5 6 6 6 11 1
17 -2 13 -5z m116 -1 c-13 -2 -35 -2 -50 0 -16 2 -5 4 22 4 28 0 40 -2 28 -4z
m54 1 c-3 -3 -12 -4 -19 -1 -8 3 -5 6 6 6 11 1 17 -2 13 -5z m797 -9 c-4 -8
-13 -15 -20 -15 -12 0 -12 3 -2 15 17 19 29 19 22 0z m376 5 c0 -5 -4 -10 -10
-10 -5 0 -10 5 -10 10 0 6 5 10 10 10 6 0 10 -4 10 -10z m80 0 c0 -5 -2 -10
-4 -10 -3 0 -8 5 -11 10 -3 6 -1 10 4 10 6 0 11 -4 11 -10z m53 -7 c-7 -2 -21
-2 -30 0 -10 3 -4 5 12 5 17 0 24 -2 18 -5z m44 1 c-3 -3 -12 -4 -19 -1 -8 3
-5 6 6 6 11 1 17 -2 13 -5z m383 -4 c0 -5 -2 -10 -4 -10 -3 0 -8 5 -11 10 -3
6 -1 10 4 10 6 0 11 -4 11 -10z m-2620 -10 c0 -5 -2 -10 -4 -10 -3 0 -8 5 -11
10 -3 6 -1 10 4 10 6 0 11 -4 11 -10z m420 -16 c0 -8 -4 -14 -10 -14 -5 0 -10
9 -10 21 0 11 5 17 10 14 6 -3 10 -13 10 -21z m507 6 c3 -11 2 -11 -4 -3 -5 6
-35 14 -68 16 l-60 4 64 -1 c48 -1 65 -5 68 -16z m168 10 c3 -5 1 -10 -4 -10
-6 0 -11 5 -11 10 0 6 2 10 4 10 3 0 8 -4 11 -10z m310 0 c-3 -5 -12 -10 -20
-10 -8 0 -17 5 -20 10 -4 6 5 10 20 10 15 0 24 -4 20 -10z m1359 0 c-7 -7 -19
-7 -35 -1 -23 9 -22 10 11 10 23 1 31 -2 24 -9z m56 -10 c-6 -11 -13 -20 -15
-20 -3 0 -5 9 -5 20 0 11 7 20 15 20 13 0 14 -4 5 -20z m403 13 c-7 -2 -19 -2
-25 0 -7 3 -2 5 12 5 14 0 19 -2 13 -5z m75 0 c-10 -2 -28 -2 -40 0 -13 2 -5
4 17 4 22 1 32 -1 23 -4z m50 -13 c14 0 15 -2 2 -9 -18 -12 -30 -5 -29 17 0
11 3 12 6 5 2 -7 12 -13 21 -13z m250 13 c-10 -2 -26 -2 -35 0 -10 3 -2 5 17
5 19 0 27 -2 18 -5z m130 -16 c2 -12 -2 -14 -20 -9 -20 5 -21 7 -4 10 15 3 16
6 5 14 -12 8 -11 9 1 5 8 -2 16 -11 18 -20z m-3848 3 c0 -5 -4 -10 -10 -10 -5
0 -10 5 -10 10 0 6 5 10 10 10 6 0 10 -4 10 -10z m228 0 c13 -7 7 -9 -25 -10
-24 0 -43 4 -43 8 0 12 50 13 68 2z m620 -8 c2 -7 -2 -10 -12 -6 -9 3 -16 11
-16 16 0 13 23 5 28 -10z m272 9 c0 -6 -4 -12 -8 -15 -5 -3 -9 1 -9 9 0 8 4
15 9 15 4 0 8 -4 8 -9z m154 -6 c-4 -8 -10 -15 -15 -15 -5 0 -9 7 -9 15 0 8 7
15 15 15 9 0 12 -6 9 -15z m321 5 c-3 -5 -12 -10 -20 -10 -8 0 -17 5 -20 10
-4 6 5 10 20 10 15 0 24 -4 20 -10z m377 -12 c-7 -7 -12 -8 -12 -2 0 14 12 26
19 19 2 -3 -1 -11 -7 -17z m146 15 c-11 -3 -15 -10 -11 -21 6 -16 5 -16 -13
-1 -10 9 -26 19 -34 22 -8 3 5 5 30 5 25 0 37 -2 28 -5z m70 0 c-10 -2 -26 -2
-35 0 -10 3 -2 5 17 5 19 0 27 -2 18 -5z m159 1 c-3 -3 -12 -4 -19 -1 -8 3 -5
6 6 6 11 1 17 -2 13 -5z m433 -15 c0 -5 -4 -9 -10 -9 -5 0 -10 7 -10 16 0 8 5
12 10 9 6 -3 10 -10 10 -16z m-505 1 c3 -5 1 -10 -4 -10 -6 0 -11 5 -11 10 0
6 2 10 4 10 3 0 8 -4 11 -10z m1035 2 c0 -4 -9 -8 -19 -8 -11 0 -17 4 -15 8 3
4 12 8 20 8 8 0 14 -4 14 -8z m403 1 c-7 -2 -19 -2 -25 0 -7 3 -2 5 12 5 14 0
19 -2 13 -5z m974 -75 c-2 -13 -4 -3 -4 22 0 25 2 35 4 23 2 -13 2 -33 0 -45z
m-2772 42 c-3 -5 -12 -7 -20 -3 -21 7 -19 13 6 13 11 0 18 -4 14 -10z m115 -4
c0 -11 -19 -15 -25 -6 -3 5 1 10 9 10 9 0 16 -2 16 -4z m-270 -46 c0 -5 -4
-10 -10 -10 -5 0 -10 5 -10 10 0 6 5 10 10 10 6 0 10 -4 10 -10z m170 2 c0 -4
-13 -13 -30 -19 -16 -6 -30 -8 -30 -3 0 7 23 18 58 29 1 1 2 -3 2 -7z m150 -6
c0 -2 -7 -7 -16 -10 -8 -3 -12 -2 -9 4 6 10 25 14 25 6z m-75 -27 c17 -7 41
-11 55 -11 23 2 23 1 5 -7 -17 -8 -18 -10 -2 -10 9 -1 25 -5 35 -11 61 -35
456 -165 558 -183 49 -9 103 -19 119 -22 80 -16 270 -16 402 -1 132 15 176 23
341 61 119 28 133 29 143 14 12 -20 11 -31 -2 -23 -9 5 -10 -53 -5 -227 12
-379 15 -489 21 -779 3 -151 8 -331 11 -400 3 -69 5 -134 5 -144 0 -10 7 -28
15 -40 16 -24 18 -46 4 -46 -5 0 -7 6 -4 14 3 8 0 17 -6 21 -12 7 -11 -54 4
-655 2 -69 6 -244 10 -390 l6 -265 -25 -54 c-15 -32 -23 -63 -20 -75 5 -15 4
-17 -3 -7 -8 11 -11 11 -18 0 -27 -44 -57 -118 -55 -141 1 -15 -4 -30 -10 -34
-8 -4 -9 1 -4 17 l6 24 -19 -24 c-11 -14 -17 -31 -14 -40 3 -8 1 -12 -5 -8
-13 8 -86 -100 -78 -114 4 -5 2 -8 -3 -7 -12 4 -66 -61 -58 -70 4 -3 11 -1 15
7 7 10 9 10 14 -2 4 -11 -1 -14 -18 -12 -14 1 -32 -6 -42 -17 -17 -19 -17 -20
0 -29 9 -6 17 -15 17 -20 0 -6 -8 -3 -17 7 -16 16 -20 13 -64 -37 -33 -38 -44
-57 -36 -62 8 -6 6 -7 -5 -3 -24 7 -64 -34 -46 -47 9 -6 8 -7 -4 -4 -19 6 -42
-15 -30 -28 4 -5 2 -5 -4 -2 -7 4 -31 -12 -55 -36 -24 -23 -69 -63 -99 -87
-96 -79 -99 -82 -92 -99 5 -13 3 -14 -10 -3 -13 10 -18 9 -29 -4 -11 -13 -10
-17 2 -25 9 -5 10 -9 2 -9 -6 0 -15 4 -18 10 -6 10 -105 -58 -105 -73 0 -4 -5
-5 -10 -2 -6 3 -16 0 -24 -8 -8 -7 -37 -28 -65 -46 -28 -18 -48 -38 -44 -44 3
-5 1 -7 -5 -3 -9 5 -106 -46 -122 -65 -3 -3 -28 -18 -57 -33 -28 -16 -53 -37
-56 -47 -3 -11 -11 -19 -19 -19 -10 0 -10 2 2 10 8 5 12 11 9 14 -3 3 -20 -4
-39 -16 -19 -12 -62 -36 -95 -53 -253 -133 -300 -159 -303 -166 -2 -4 -18 -2
-35 6 -89 40 -192 75 -204 71 -8 -3 -12 -2 -9 3 8 12 -32 21 -64 15 -21 -3
-22 -3 -5 4 16 7 11 12 -35 27 -30 10 -59 21 -65 25 -5 4 -39 18 -75 32 -80
32 -196 83 -233 104 -15 8 -32 12 -39 8 -6 -4 -8 -3 -5 3 4 6 -10 18 -31 28
-59 27 -242 138 -242 147 0 4 -6 8 -13 8 -7 0 -36 19 -64 43 -28 23 -66 53
-84 67 -18 14 -62 53 -98 87 -58 55 -92 79 -77 55 9 -15 -45 -12 -60 3 -19 18
-11 19 16 3 15 -10 22 -10 31 -1 10 10 0 25 -43 70 -31 32 -69 74 -85 93 -15
19 -32 40 -38 46 -13 14 -58 70 -86 107 -17 22 -24 26 -31 15 -7 -9 -8 -7 -4
8 4 13 -1 29 -15 45 -12 13 -28 34 -36 46 -8 13 -19 20 -24 17 -5 -3 -6 2 -3
10 4 9 -1 18 -10 22 -9 3 -16 11 -16 16 0 19 -42 68 -52 62 -7 -4 -8 -2 -4 4
4 6 -22 54 -59 107 -36 52 -65 97 -65 101 0 5 -43 66 -63 89 -5 6 -5 2 -1 -9
4 -11 2 -21 -7 -27 -22 -14 -29 -11 -28 14 0 12 3 16 6 10 2 -7 9 -13 15 -13
6 0 8 6 5 14 -3 8 -3 17 1 20 8 8 10 203 36 2544 3 298 7 397 16 405 8 7 11 8
7 1 -7 -12 41 -38 91 -48 17 -4 32 -12 32 -17 0 -14 28 -11 33 4 3 7 6 5 6 -5
1 -10 3 -18 6 -18 3 0 44 -11 91 -25 92 -27 101 -29 178 -45 103 -21 396 -39
396 -24 0 5 28 9 63 9 90 1 179 14 171 27 -4 6 1 8 14 4 30 -10 319 63 306 77
-4 4 4 7 17 7 47 0 164 42 509 185 30 13 59 21 65 19 5 -2 24 -9 40 -15z m110
11 c-12 -5 -14 -9 -6 -9 8 -1 12 -3 10 -6 -3 -2 -16 -1 -29 2 -22 6 -23 7 -4
14 27 11 54 10 29 -1z m-280 -10 c3 -6 -1 -7 -9 -4 -18 7 -21 14 -7 14 6 0 13
-4 16 -10z m-90 -50 c3 -5 2 -10 -4 -10 -5 0 -17 -3 -27 -7 -16 -6 -17 -5 -4
10 17 19 26 21 35 7z m425 0 c0 -5 -2 -10 -4 -10 -3 0 -8 5 -11 10 -3 6 -1 10
4 10 6 0 11 -4 11 -10z m170 1 c0 -5 9 -13 21 -16 11 -4 18 -9 16 -11 -7 -7
-57 18 -57 28 0 4 5 8 10 8 6 0 10 -4 10 -9z m-650 -5 c0 -2 -9 -6 -20 -9 -11
-3 -20 -1 -20 4 0 5 9 9 20 9 11 0 20 -2 20 -4z m-1680 -15 c0 -6 -4 -13 -10
-16 -5 -3 -10 1 -10 9 0 9 5 16 10 16 6 0 10 -4 10 -9z m1593 -17 c-18 -9 -33
-22 -33 -28 0 -6 -5 -4 -10 4 -5 8 -10 20 -10 25 0 6 5 3 10 -5 6 -9 10 -10
10 -3 0 11 20 20 50 22 8 0 0 -7 -17 -15z m727 6 c11 -8 7 -9 -15 -4 -37 8
-45 14 -19 14 10 0 26 -5 34 -10z m-695 -20 c-16 -11 -34 -20 -38 -20 -14 0 4
21 27 30 37 15 42 11 11 -10z m2010 10 c3 -5 -1 -10 -9 -10 -9 0 -16 5 -16 10
0 6 4 10 9 10 6 0 13 -4 16 -10z m-3545 -31 c0 -4 -9 -11 -21 -14 -12 -4 -18
-12 -15 -21 7 -19 -9 -18 -25 3 -10 11 -10 14 -1 9 6 -4 12 -2 12 3 0 6 7 11
15 11 8 0 15 5 15 10 0 6 -5 10 -11 10 -5 0 -7 5 -4 10 7 12 35 -5 35 -21z
m2341 -24 c19 -8 29 -14 23 -15 -7 0 -27 7 -45 15 -19 8 -29 14 -23 15 7 0 27
-7 45 -15z m53 6 c4 -5 -3 -7 -14 -4 -23 6 -26 13 -6 13 8 0 17 -4 20 -9z
m1084 -3 c-4 -18 -20 -28 -43 -27 -16 1 -16 2 5 9 21 7 22 8 5 10 -17 2 -16 3
5 10 14 4 26 8 28 9 1 1 1 -5 0 -11z m37 2 c3 -6 -1 -7 -9 -4 -18 7 -21 14 -7
14 6 0 13 -4 16 -10z m58 3 c3 -5 -6 -9 -20 -10 -19 -1 -22 1 -12 8 17 11 26
11 32 2z m-2268 -12 c-9 -8 -36 -10 -30 -2 2 4 11 8 20 8 8 0 13 -3 10 -6z
m75 -5 c-65 -24 -87 -28 -50 -8 19 10 46 18 60 19 20 1 18 -1 -10 -11z m1970
5 c0 -5 -8 -11 -17 -14 -10 -2 -27 -8 -38 -12 -11 -4 -6 2 10 13 34 23 45 26
45 13z m-896 -10 c4 -5 -3 -7 -14 -4 -23 6 -26 13 -6 13 8 0 17 -4 20 -9z
m-2429 -11 c18 -8 17 -9 -7 -9 -16 -1 -28 4 -28 9 0 12 8 12 35 0z m2400 0
c13 -6 15 -9 5 -9 -8 0 -22 4 -30 9 -18 12 -2 12 25 0z m935 -10 c0 -5 -12
-10 -27 -9 -25 0 -26 1 -8 9 27 12 35 12 35 0z m-3236 -39 c4 -5 -3 -7 -14 -4
-23 6 -26 13 -6 13 8 0 17 -4 20 -9z m80 0 c6 -10 -43 -25 -52 -16 -3 3 2 5
12 5 9 0 14 5 11 10 -3 6 1 10 9 10 8 0 17 -4 20 -9z m2493 3 c-3 -3 -12 -4
-19 -1 -8 3 -5 6 6 6 11 1 17 -2 13 -5z m160 0 c-3 -3 -12 -4 -19 -1 -8 3 -5
6 6 6 11 1 17 -2 13 -5z m-2622 -22 c-3 -3 -15 -7 -28 -9 -21 -4 -21 -3 -2 11
18 13 44 12 30 -2z m70 8 c3 -6 -1 -7 -9 -4 -18 7 -21 14 -7 14 6 0 13 -4 16
-10z m745 0 c-8 -5 -22 -9 -30 -9 -10 0 -8 3 5 9 27 12 43 12 25 0z m65 0 c8
-13 -5 -13 -25 0 -13 8 -13 10 2 10 9 0 20 -4 23 -10z m1628 3 c-7 -2 -19 -2
-25 0 -7 3 -2 5 12 5 14 0 19 -2 13 -5z m294 1 c-3 -3 -12 -4 -19 -1 -8 3 -5
6 6 6 11 1 17 -2 13 -5z m50 0 c-3 -3 -12 -4 -19 -1 -8 3 -5 6 6 6 11 1 17 -2
13 -5z m1520 -116 c-2 -24 -4 -5 -4 42 0 47 2 66 4 43 2 -24 2 -62 0 -85z
m-3647 102 c-8 -5 -22 -9 -30 -9 -10 0 -8 3 5 9 27 12 43 12 25 0z m1923 3
c-13 -2 -33 -2 -45 0 -13 2 -3 4 22 4 25 0 35 -2 23 -4z m90 0 c-7 -2 -21 -2
-30 0 -10 3 -4 5 12 5 17 0 24 -2 18 -5z m-2596 -39 c-3 -3 -12 -4 -19 -1 -8
3 -5 6 6 6 11 1 17 -2 13 -5z m3200 -126 c-3 -7 -5 -2 -5 12 0 14 2 19 5 13 2
-7 2 -19 0 -25z m30 -180 c-2 -24 -4 -5 -4 42 0 47 2 66 4 43 2 -24 2 -62 0
-85z m-30 60 c-3 -8 -6 -5 -6 6 -1 11 2 17 5 13 3 -3 4 -12 1 -19z m1030 -160
c-2 -13 -4 -3 -4 22 0 25 2 35 4 23 2 -13 2 -33 0 -45z m0 -80 c-2 -13 -4 -5
-4 17 -1 22 1 32 4 23 2 -10 2 -28 0 -40z m-937 -60 c0 -26 -4 -38 -8 -30 -8
12 -4 72 4 72 2 0 4 -19 4 -42z m-83 -25 c-3 -10 -5 -2 -5 17 0 19 2 27 5 18
2 -10 2 -26 0 -35z m10 -226 c-2 -23 -3 -1 -3 48 0 50 1 68 3 42 2 -26 2 -67
0 -90z m-4630 -489 c-2 -13 -4 -3 -4 22 0 25 2 35 4 23 2 -13 2 -33 0 -45z
m4640 -15 c-2 -16 -4 -3 -4 27 0 30 2 43 4 28 2 -16 2 -40 0 -55z m-3800 5
c-3 -7 -5 -2 -5 12 0 14 2 19 5 13 2 -7 2 -19 0 -25z m20 -55 c-3 -10 -5 -2
-5 17 0 19 2 27 5 18 2 -10 2 -26 0 -35z m4770 -95 c-2 -13 -4 -3 -4 22 0 25
2 35 4 23 2 -13 2 -33 0 -45z m-4770 10 c-3 -8 -6 -5 -6 6 -1 11 2 17 5 13 3
-3 4 -12 1 -19z m4790 -410 c-2 -13 -4 -3 -4 22 0 25 2 35 4 23 2 -13 2 -33 0
-45z m-4790 20 c-3 -7 -5 -2 -5 12 0 14 2 19 5 13 2 -7 2 -19 0 -25z m-30
-100 c-2 -13 -4 -3 -4 22 0 25 2 35 4 23 2 -13 2 -33 0 -45z m30 -35 c-2 -16
-4 -3 -4 27 0 30 2 43 4 28 2 -16 2 -40 0 -55z m0 -130 c-3 -10 -5 -2 -5 17 0
19 2 27 5 18 2 -10 2 -26 0 -35z m-30 -155 c-2 -13 -4 -3 -4 22 0 25 2 35 4
23 2 -13 2 -33 0 -45z m30 20 c-3 -7 -5 -2 -5 12 0 14 2 19 5 13 2 -7 2 -19 0
-25z m-10 -85 c-3 -10 -5 -2 -5 17 0 19 2 27 5 18 2 -10 2 -26 0 -35z m4770
-15 c-2 -13 -4 -3 -4 22 0 25 2 35 4 23 2 -13 2 -33 0 -45z m-5620 -80 c-2
-13 -4 -3 -4 22 0 25 2 35 4 23 2 -13 2 -33 0 -45z m837 -32 c-4 -31 -9 -54
-12 -52 -2 3 -1 30 3 61 3 31 9 55 11 52 3 -2 2 -30 -2 -61z m-837 -128 c-2
-13 -4 -3 -4 22 0 25 2 35 4 23 2 -13 2 -33 0 -45z m848 -173 c-4 -37 -9 -65
-11 -62 -3 2 -2 34 2 71 4 37 9 64 12 62 2 -3 1 -35 -3 -71z m-28 -72 c-2 -16
-4 -5 -4 22 0 28 2 40 4 28 2 -13 2 -35 0 -50z m-800 -75 c-2 -13 -4 -3 -4 22
0 25 2 35 4 23 2 -13 2 -33 0 -45z m860 6 c-3 -3 -12 -4 -19 -1 -8 3 -5 6 6 6
11 1 17 -2 13 -5z m31 -29 c-3 -3 -9 2 -12 12 -6 14 -5 15 5 6 7 -7 10 -15 7
-18z m-5 -25 c9 -11 13 -20 8 -20 -4 0 -16 9 -26 20 -10 11 -14 20 -9 20 5 0
17 -9 27 -20z m-886 -52 c-2 -13 -4 -3 -4 22 0 25 2 35 4 23 2 -13 2 -33 0
-45z m4610 30 c-3 -8 -6 -5 -6 6 -1 11 2 17 5 13 3 -3 4 -12 1 -19z m20 0 c-3
-8 -6 -5 -6 6 -1 11 2 17 5 13 3 -3 4 -12 1 -19z m-3707 -7 c0 -5 -7 -12 -16
-15 -14 -5 -15 -4 -4 9 14 17 20 19 20 6z m4690 -39 c0 -7 -4 -10 -10 -7 -5 3
-10 16 -10 28 0 18 2 19 10 7 5 -8 10 -21 10 -28z m-4666 15 c-3 -8 -11 -14
-19 -14 -11 0 -12 4 -4 14 6 7 15 13 20 13 5 0 6 -6 3 -13z m4683 -29 c-3 -8
-6 -5 -6 6 -1 11 2 17 5 13 3 -3 4 -12 1 -19z m-4609 -73 c12 -15 3 -35 -16
-35 -13 0 -14 2 -4 9 12 7 11 13 -2 37 -8 17 -16 23 -16 14 -1 -10 -4 -9 -10
5 -17 40 -9 48 15 14 13 -19 28 -39 33 -44z m-998 44 c-7 -11 -14 -19 -16 -16
-7 7 7 37 17 37 6 0 5 -9 -1 -21z m4526 -5 c-4 -9 -9 -15 -11 -12 -3 3 -3 13
1 22 4 9 9 15 11 12 3 -3 3 -13 -1 -22z m24 -5 c-6 -10 -13 -19 -16 -19 -2 0
0 8 5 19 6 10 7 22 3 26 -4 5 -1 5 6 1 9 -5 9 -12 2 -27z m1009 -29 c0 -10 -3
-8 -9 5 -12 27 -12 43 0 25 5 -8 9 -22 9 -30z m22 -21 c-9 -22 -10 -22 -10 -3
-1 11 2 24 6 27 12 12 14 0 4 -24z m-4631 -26 c0 -12 -3 -13 -13 -4 -8 6 -16
8 -20 5 -3 -3 -3 4 0 15 4 17 8 19 19 10 8 -6 14 -18 14 -26z m-891 -7 c10
-12 9 -14 -5 -12 -10 2 -20 8 -22 14 -5 17 13 15 27 -2z m5491 0 c0 -3 -4 -8
-10 -11 -5 -3 -10 -1 -10 4 0 6 5 11 10 11 6 0 10 -2 10 -4z m4 -64 c-4 -18
-10 -32 -15 -32 -12 0 -11 13 1 46 14 35 22 26 14 -14z m-4480 -11 c-6 -6 -34
20 -34 32 0 6 8 2 19 -9 10 -10 17 -21 15 -23z m3362 7 c-1 -13 -11 -31 -24
-42 -18 -14 -20 -21 -11 -32 8 -10 9 -18 2 -25 -6 -6 -10 -5 -10 3 0 7 -4 21
-8 31 -4 9 -3 17 3 17 5 0 17 16 26 35 20 41 23 43 22 13z m-4312 -20 c10 -38
6 -45 -9 -18 -17 29 -18 40 -6 40 5 0 11 -10 15 -22z m-24 -33 c0 -7 11 -16
25 -19 26 -7 32 -20 15 -31 -5 -3 -10 2 -11 12 0 16 -1 16 -9 -2 -7 -19 -9
-18 -19 8 -6 16 -16 38 -23 50 -10 20 -10 21 5 8 10 -7 17 -19 17 -26z m5435
5 c-3 -5 -12 -10 -18 -10 -7 0 -6 4 3 10 19 12 23 12 15 0z m-4432 -15 c-3 -9
-8 -14 -10 -11 -3 3 -2 9 2 15 9 16 15 13 8 -4z m3337 -10 c7 -8 9 -15 6 -15
-4 0 -14 7 -22 15 -9 8 -11 15 -6 15 5 0 15 -7 22 -15z m1058 -41 c-6 -13 -16
-20 -24 -17 -11 4 -11 10 2 35 12 22 18 27 24 18 5 -7 3 -23 -2 -36z m-1138
-14 c0 -5 -4 -10 -10 -10 -5 0 -10 5 -10 10 0 6 5 10 10 10 6 0 10 -4 10 -10z
m1117 -39 c0 -11 -5 -18 -9 -15 -4 3 -5 11 -1 19 7 21 12 19 10 -4z m-4280 3
c-8 -8 -48 -13 -43 -6 2 4 14 8 26 9 12 1 20 0 17 -3z m-984 -35 c-7 -25 -10
-24 -15 5 -3 16 -1 23 7 19 7 -2 11 -13 8 -24z m994 -1 c-3 -8 -6 -5 -6 6 -1
11 2 17 5 13 3 -3 4 -12 1 -19z m3109 10 c5 -7 3 -8 -6 -3 -10 6 -12 4 -6 -10
5 -15 4 -16 -9 -5 -13 11 -13 15 -3 21 17 11 16 11 24 -3z m-3076 -48 c0 -5
-8 -10 -17 -10 -15 0 -16 2 -3 10 19 12 20 12 20 0z m3034 -9 c4 -5 -4 -7 -16
-3 -16 4 -19 2 -13 -8 5 -9 4 -11 -4 -6 -6 4 -9 12 -6 17 8 12 32 12 39 0z
m1146 -38 c-11 -17 -11 -17 -6 0 3 10 6 24 7 30 0 9 2 9 5 0 3 -7 0 -20 -6
-30z m-5156 -18 c3 -9 0 -15 -9 -15 -9 0 -12 6 -9 15 4 8 7 15 9 15 2 0 5 -7
9 -15z m3938 -7 c-7 -7 -12 -8 -12 -2 0 14 12 26 19 19 2 -3 -1 -11 -7 -17z
m-2909 -4 c-2 -7 -11 -10 -19 -7 -17 6 -11 20 10 20 8 0 12 -6 9 -13z m27 -14
c0 -5 -2 -10 -4 -10 -3 0 -8 5 -11 10 -3 6 -1 10 4 10 6 0 11 -4 11 -10z
m-1030 -48 c0 -15 -2 -15 -10 -2 -13 20 -13 33 0 25 6 -3 10 -14 10 -23z m45
-44 c5 4 5 1 0 -7 -6 -10 -2 -12 14 -6 26 8 27 -1 1 -15 -17 -9 -22 -6 -35 22
-11 23 -12 28 -2 16 8 -10 18 -14 22 -10z m1080 13 c3 -5 2 -12 -3 -15 -5 -3
-9 1 -9 9 0 17 3 19 12 6z m3945 -1 c0 -5 -5 -10 -11 -10 -5 0 -7 5 -4 10 3 6
8 10 11 10 2 0 4 -4 4 -10z m-30 -30 c6 -11 8 -20 6 -20 -3 0 -10 9 -16 20 -6
11 -8 20 -6 20 3 0 10 -9 16 -20z m-4929 -52 c11 -21 11 -22 -4 -9 -10 7 -17
17 -17 22 0 15 9 10 21 -13z m3639 12 c12 -7 10 -9 -8 -7 -12 0 -22 5 -22 9 0
11 12 10 30 -2z m-2496 -69 c-6 -7 -54 29 -54 40 0 6 13 0 29 -13 15 -13 27
-25 25 -27z m2399 0 c-18 -16 -31 -31 -30 -33 1 -2 -2 0 -8 4 -5 5 0 15 13 24
13 9 28 22 35 29 7 7 14 11 16 9 3 -3 -9 -17 -26 -33z m1324 -13 c-3 -8 -6 -5
-6 6 -1 11 2 17 5 13 3 -3 4 -12 1 -19z m-1297 2 c0 -5 -5 -10 -11 -10 -5 0
-7 5 -4 10 3 6 8 10 11 10 2 0 4 -4 4 -10z m-3520 -41 c0 -9 -4 -8 -15 1 -8 7
-15 19 -15 27 0 12 2 12 15 -1 8 -8 15 -20 15 -27z m1040 31 c18 -12 2 -12
-25 0 -13 6 -15 9 -5 9 8 0 22 -4 30 -9z m3735 -30 c1 -10 -2 -17 -6 -14 -4 2
-7 13 -6 24 2 23 10 17 12 -10z m-1335 5 c0 -8 -4 -15 -10 -15 -5 0 -7 7 -4
15 4 8 8 15 10 15 2 0 4 -7 4 -15z m-2292 -16 c4 -11 2 -11 -9 -2 -9 9 -16 10
-26 2 -9 -8 -13 -8 -13 -1 0 24 41 25 48 1z m2522 11 c0 -5 -7 -10 -15 -10 -8
0 -15 5 -15 10 0 6 7 10 15 10 8 0 15 -4 15 -10z m107 -10 c2 -22 1 -23 -21
-14 -12 5 -13 9 -3 20 17 19 22 17 24 -6z m-3743 -34 c25 -22 37 -54 16 -41
-12 7 -53 65 -46 65 3 0 16 -11 30 -24z m1101 14 c3 -5 1 -10 -4 -10 -6 0 -11
5 -11 10 0 6 2 10 4 10 3 0 8 -4 11 -10z m40 0 c3 -5 1 -10 -4 -10 -6 0 -11 5
-11 10 0 6 2 10 4 10 3 0 8 -4 11 -10z m2275 -4 c0 -2 -11 -6 -25 -8 -14 -3
-25 -1 -25 3 0 5 11 9 25 9 14 0 25 -2 25 -4z m-2225 -23 c18 -14 18 -15 2 -9
-10 3 -25 6 -33 6 -9 0 -12 5 -9 10 8 14 16 12 40 -7z m3529 -4 c-3 -5 -10 -7
-15 -3 -5 3 -7 10 -3 15 3 5 10 7 15 3 5 -3 7 -10 3 -15z m-1034 7 c0 -2 -9
-6 -20 -9 -11 -3 -18 -1 -14 4 5 9 34 13 34 5z m-2733 -12 c-3 -3 -12 -4 -19
-1 -8 3 -5 6 6 6 11 1 17 -2 13 -5z m86 -1 c-7 -2 -19 -2 -25 0 -7 3 -2 5 12
5 14 0 19 -2 13 -5z m117 -13 c12 -8 11 -10 -7 -10 -14 0 -23 -6 -23 -15 0
-17 -18 -19 -40 -5 -12 8 -11 10 8 10 12 0 25 7 28 15 7 17 13 18 34 5z m2140
1 c0 -5 -7 -12 -16 -15 -14 -5 -15 -4 -4 9 14 17 20 19 20 6z m-2440 -11 c0
-5 -5 -10 -11 -10 -5 0 -7 5 -4 10 3 6 8 10 11 10 2 0 4 -4 4 -10z m97 4 c-3
-3 -12 -4 -19 -1 -8 3 -5 6 6 6 11 1 17 -2 13 -5z m293 -20 c0 -2 -9 0 -20 6
-11 6 -20 13 -20 16 0 2 9 0 20 -6 11 -6 20 -13 20 -16z m-333 10 c-3 -3 -12
-4 -19 -1 -8 3 -5 6 6 6 11 1 17 -2 13 -5z m2430 0 c-3 -3 -12 -4 -19 -1 -8 3
-5 6 6 6 11 1 17 -2 13 -5z m-82 -14 c3 -5 -1 -10 -10 -10 -9 0 -13 5 -10 10
3 6 8 10 10 10 2 0 7 -4 10 -10z m325 6 c0 -3 -4 -8 -10 -11 -5 -3 -10 -1 -10
4 0 6 5 11 10 11 6 0 10 -2 10 -4z m210 -12 c0 -8 -5 -12 -10 -9 -6 4 -8 11
-5 16 9 14 15 11 15 -7z m-480 -4 c0 -5 -2 -10 -4 -10 -3 0 -8 5 -11 10 -3 6
-1 10 4 10 6 0 11 -4 11 -10z m70 6 c0 -2 -7 -9 -15 -16 -13 -11 -14 -10 -9 4
5 14 24 23 24 12z m-3300 -16 c0 -5 6 -7 14 -4 7 3 17 -3 20 -13 6 -14 5 -16
-5 -6 -10 11 -15 8 -24 -14 -10 -23 -12 -25 -18 -10 -4 11 -3 16 3 12 6 -3 10
-2 10 4 0 5 -4 13 -10 16 -5 3 -10 10 -10 16 0 5 5 9 10 9 6 0 10 -4 10 -10z
m1176 1 c-4 -5 0 -12 6 -14 7 -3 4 -6 -7 -6 -11 0 -27 4 -35 10 -13 9 -12 10
3 5 9 -3 17 -1 17 4 0 6 5 10 11 10 5 0 8 -4 5 -9z m-426 -11 c0 -5 -2 -10 -4
-10 -3 0 -8 5 -11 10 -3 6 -1 10 4 10 6 0 11 -4 11 -10z m330 0 c-8 -5 -19
-10 -25 -10 -5 0 -3 5 5 10 8 5 20 10 25 10 6 0 3 -5 -5 -10z m2357 -12 c-3
-8 -6 -5 -6 6 -1 11 2 17 5 13 3 -3 4 -12 1 -19z m1131 -4 c-11 -23 -13 -24
-19 -7 -3 10 -1 21 5 25 21 14 26 8 14 -18z m-818 -14 c0 -6 -9 -5 -20 2 -11
7 -20 16 -20 21 0 4 9 3 20 -3 11 -6 20 -15 20 -20z m-3040 6 c0 -3 -4 -8 -10
-11 -5 -3 -10 -1 -10 4 0 6 5 11 10 11 6 0 10 -2 10 -4z m2364 -13 c-46 -42
-52 -45 -60 -31 -4 7 -4 10 1 6 4 -4 21 4 37 17 33 28 52 34 22 8z m-2324 3
c0 -2 -8 -10 -17 -17 -16 -13 -17 -12 -4 4 13 16 21 21 21 13z m3011 -19 c-10
-9 -11 -8 -5 6 3 10 9 15 12 12 3 -3 0 -11 -7 -18z m69 -2 c0 -8 -6 -15 -14
-15 -7 0 -19 7 -26 15 -11 13 -8 15 14 15 16 0 26 -5 26 -15z m673 -15 c-3
-11 -9 -18 -13 -15 -5 3 -6 14 -3 25 3 11 9 18 13 15 5 -3 6 -14 3 -25z
m-3208 10 c8 -13 -5 -13 -25 0 -13 8 -13 10 2 10 9 0 20 -4 23 -10z m-1175
-29 c3 -2 -3 -1 -14 3 -10 3 -25 1 -34 -6 -13 -12 -14 -11 -2 9 14 21 20 21
50 -6z m3267 -3 c-3 -7 -5 -2 -5 12 0 14 2 19 5 13 2 -7 2 -19 0 -25z m318 22
c3 -6 -1 -7 -9 -4 -18 7 -21 14 -7 14 6 0 13 -4 16 -10z m212 -4 c-3 -7 0 -19
6 -25 6 -6 7 -14 2 -18 -4 -5 -10 -2 -12 5 -3 6 -9 9 -14 6 -6 -3 -5 -11 2
-20 6 -8 8 -14 3 -14 -5 0 -17 12 -27 25 -17 24 -13 31 16 26 4 -1 10 6 13 14
4 8 8 15 11 15 3 0 3 -6 0 -14z m-2717 -18 c0 -6 -8 -7 -17 -3 -10 4 -23 8
-30 8 -7 0 -10 3 -8 7 7 11 55 -1 55 -12z m154 -11 c-1 -12 -3 -24 -3 -27 -3
-9 -31 34 -31 46 0 7 8 10 18 7 12 -3 18 -12 16 -26z m2333 17 c-3 -3 -12 -4
-19 -1 -8 3 -5 6 6 6 11 1 17 -2 13 -5z m43 -4 c-8 -5 -19 -10 -25 -10 -5 0
-3 5 5 10 8 5 20 10 25 10 6 0 3 -5 -5 -10z m-2480 -21 c0 -6 -4 -7 -10 -4 -5
3 -10 11 -10 16 0 6 5 7 10 4 6 -3 10 -11 10 -16z m-1135 1 c-3 -5 -12 -10
-18 -10 -7 0 -6 4 3 10 19 12 23 12 15 0z m622 -22 c-3 -7 -5 -2 -5 12 0 14 2
19 5 13 2 -7 2 -19 0 -25z m227 17 c11 -8 15 -15 9 -15 -7 0 -15 5 -19 11 -3
6 -15 9 -25 6 -11 -3 -17 -1 -13 4 8 13 26 11 48 -6z m2640 1 c-26 -18 -53
-24 -53 -11 -1 6 8 10 18 10 11 0 23 3 27 8 4 4 12 7 18 7 6 0 1 -6 -10 -14z
m-2894 -28 c0 -5 -4 -8 -10 -8 -5 0 -10 10 -10 23 0 18 2 19 10 7 5 -8 10 -18
10 -22z m502 7 c3 -13 1 -22 -3 -19 -9 5 -13 44 -5 44 2 0 6 -11 8 -25z m183
15 c3 -6 -1 -7 -9 -4 -18 7 -21 14 -7 14 6 0 13 -4 16 -10z m-207 -25 c-3 -3
-9 2 -12 12 -6 14 -5 15 5 6 7 -7 10 -15 7 -18z m-1068 -28 c0 -6 -9 0 -20 13
-11 13 -20 25 -20 28 0 3 9 -3 20 -13 11 -10 20 -23 20 -28z m2800 33 c0 -5
-8 -10 -17 -10 -15 0 -16 2 -3 10 19 12 20 12 20 0z m425 -10 c3 -5 1 -10 -4
-10 -6 0 -11 5 -11 10 0 6 2 10 4 10 3 0 8 -4 11 -10z m615 0 c0 -5 -4 -10 -9
-10 -5 0 -12 -8 -14 -17 -2 -10 -3 -8 -2 5 2 16 -2 22 -12 18 -8 -3 -11 -1 -8
4 8 13 45 13 45 0z m-2994 -22 c-6 -10 -14 -18 -17 -18 -4 0 -9 8 -11 18 -4
13 1 18 17 18 19 0 21 -3 11 -18z m-800 0 c4 -7 3 -8 -4 -4 -7 4 -12 2 -12 -4
0 -6 10 -14 22 -19 12 -4 17 -11 11 -14 -13 -8 -47 29 -38 42 8 14 12 14 21
-1z m44 2 c0 -5 -4 -10 -10 -10 -5 0 -10 5 -10 10 0 6 5 10 10 10 6 0 10 -4
10 -10z m470 6 c0 -3 -4 -8 -10 -11 -5 -3 -10 -1 -10 4 0 6 5 11 10 11 6 0 10
-2 10 -4z m2896 -11 c-11 -8 -25 -15 -30 -15 -6 1 0 7 14 15 32 19 40 18 16 0z
m868 7 c3 -5 -1 -9 -9 -9 -8 0 -15 4 -15 9 0 4 4 8 9 8 6 0 12 -4 15 -8z
m-3229 -20 c-3 -3 -11 0 -18 7 -9 10 -8 11 6 5 10 -3 15 -9 12 -12z m-620 -2
c-3 -5 -11 -10 -16 -10 -6 0 -7 5 -4 10 3 6 11 10 16 10 6 0 7 -4 4 -10z m55
5 c0 -2 -10 -9 -22 -15 -22 -11 -22 -10 -4 4 21 17 26 19 26 11z m50 -5 c0 -5
-4 -10 -10 -10 -5 0 -10 5 -10 10 0 6 5 10 10 10 6 0 10 -4 10 -10z m36 -15
c1 -14 -2 -22 -7 -19 -11 6 -12 44 -1 44 4 0 8 -11 8 -25z m564 15 c0 -13 -11
-13 -30 0 -12 8 -11 10 8 10 12 0 22 -4 22 -10z m197 4 c-3 -3 -12 -4 -19 -1
-8 3 -5 6 6 6 11 1 17 -2 13 -5z m-132 -14 c3 -6 -1 -7 -9 -4 -18 7 -21 14 -7
14 6 0 13 -4 16 -10z m1986 -40 c-7 -33 -7 -34 -14 -10 -3 14 -2 27 5 31 6 4
7 13 3 20 -6 10 -5 11 3 4 7 -6 8 -23 3 -45z m-2151 24 c0 -8 -5 -12 -10 -9
-6 4 -8 11 -5 16 9 14 15 11 15 -7z m-433 -16 c-3 -8 -6 -5 -6 6 -1 11 2 17 5
13 3 -3 4 -12 1 -19z m266 -7 c3 -15 0 -17 -17 -13 -11 3 -15 7 -9 9 7 3 9 11
6 20 -4 10 -2 14 4 10 6 -4 13 -15 16 -26z m547 19 c24 -15 7 -18 -20 -3 -14
7 -18 13 -10 13 8 0 22 -4 30 -10z m1196 -5 c-11 -8 -22 -12 -25 -9 -6 6 19
24 34 24 6 -1 1 -7 -9 -15z m1173 -29 c-9 -8 -10 -7 -5 7 3 10 7 24 7 30 1 7
3 4 6 -7 3 -10 -1 -23 -8 -30z m387 19 c-1 -9 -5 -15 -9 -15 -4 0 -14 0 -23 0
-14 0 -14 3 -4 15 16 19 39 19 36 0z m74 11 c0 -3 -4 -8 -10 -11 -5 -3 -10 -1
-10 4 0 6 5 11 10 11 6 0 10 -2 10 -4z m-4150 -26 c6 -11 7 -20 2 -20 -6 0
-12 9 -15 20 -3 11 -3 20 -1 20 2 0 8 -9 14 -20z m1395 2 c-3 -3 2 -14 12 -24
18 -20 11 -23 -18 -8 -23 13 -27 52 -4 43 9 -3 13 -8 10 -11z m-1435 -8 c0
-18 -26 -19 -33 -1 -3 8 3 14 14 14 11 1 19 -5 19 -13z m270 -24 c-6 -12 -14
-19 -17 -16 -4 3 0 18 8 32 7 14 15 21 17 15 2 -5 -2 -20 -8 -31z m70 0 c0
-21 -25 -4 -28 20 -4 21 -2 22 12 7 9 -8 16 -21 16 -27z m847 34 c-3 -3 -12
-4 -19 -1 -8 3 -5 6 6 6 11 1 17 -2 13 -5z m2964 -21 c-12 -20 -14 -14 -5 12
4 9 9 14 11 11 3 -2 0 -13 -6 -23z m-3636 7 c3 -5 1 -10 -4 -10 -6 0 -11 5
-11 10 0 6 2 10 4 10 3 0 8 -4 11 -10z m78 -36 c-6 -17 -19 -18 -29 -2 -4 6
-3 8 4 4 6 -3 13 -2 16 3 4 5 2 12 -4 16 -5 3 -10 12 -10 18 0 7 7 4 15 -6 7
-11 11 -25 8 -33z m631 31 c-4 -8 -11 -12 -16 -9 -6 4 -5 10 3 15 19 12 19 11
13 -6z m256 5 c8 -5 11 -12 8 -16 -4 -3 -14 1 -23 10 -18 17 -9 21 15 6z
m2079 -12 c0 -13 -3 -17 -6 -10 -9 22 -24 13 -17 -12 3 -14 1 -27 -7 -31 -7
-5 -10 -4 -6 1 3 6 2 16 -3 24 -11 18 6 50 25 50 9 0 15 -9 14 -22z m-2673 -1
c8 3 14 0 14 -7 0 -15 -33 -9 -36 8 -1 7 0 8 2 3 3 -6 12 -7 20 -4z m3236 -9
c-7 -7 -12 -8 -12 -2 0 14 12 26 19 19 2 -3 -1 -11 -7 -17z m-2752 2 c0 -5 -7
-10 -15 -10 -8 0 -15 5 -15 10 0 6 7 10 15 10 8 0 15 -4 15 -10z m-530 -10 c0
-5 -5 -10 -11 -10 -5 0 -7 5 -4 10 3 6 8 10 11 10 2 0 4 -4 4 -10z m695 0 c13
-6 15 -9 5 -9 -8 0 -22 4 -30 9 -18 12 -2 12 25 0z m1632 -20 c-1 -16 -6 -29
-10 -27 -5 1 -8 5 -7 7 5 26 13 50 16 50 2 0 2 -13 1 -30z m-3107 10 c0 -5 -5
-10 -11 -10 -5 0 -7 5 -4 10 3 6 8 10 11 10 2 0 4 -4 4 -10z m2393 3 c-7 -2
-19 -2 -25 0 -7 3 -2 5 12 5 14 0 19 -2 13 -5z m87 -3 c0 -5 -5 -10 -11 -10
-5 0 -7 5 -4 10 3 6 8 10 11 10 2 0 4 -4 4 -10z m567 -12 c-3 -8 -6 -5 -6 6
-1 11 2 17 5 13 3 -3 4 -12 1 -19z m610 0 c-3 -8 -6 -5 -6 6 -1 11 2 17 5 13
3 -3 4 -12 1 -19z m-2860 -15 c-15 -16 -17 -16 -17 -1 0 9 6 18 13 21 20 7 22
-2 4 -20z m633 14 c0 -8 -7 -14 -15 -14 -11 0 -12 4 -4 14 6 7 13 13 15 13 2
0 4 -6 4 -13z m90 9 c0 -2 -7 -7 -16 -10 -8 -3 -12 -2 -9 4 6 10 25 14 25 6z
m-965 -16 c-11 -5 -14 -9 -7 -9 6 -1 12 -5 12 -10 0 -5 -11 -8 -24 -7 -23 1
-23 2 -9 19 9 9 23 17 32 16 12 0 11 -3 -4 -9z m700 -17 c14 -15 25 -32 25
-38 0 -5 -7 0 -15 12 -9 12 -26 29 -38 38 -12 8 -16 15 -10 15 7 0 24 -12 38
-27z m2785 23 c0 -3 -4 -8 -10 -11 -5 -3 -10 -1 -10 4 0 6 5 11 10 11 6 0 10
-2 10 -4z m-4045 -26 c10 -11 16 -20 13 -20 -3 0 -13 9 -23 20 -10 11 -16 20
-13 20 3 0 13 -9 23 -20z m35 16 c0 -11 -19 -15 -25 -6 -3 5 1 10 9 10 9 0 16
-2 16 -4z m1540 -17 c0 -6 -4 -7 -10 -4 -5 3 -10 11 -10 16 0 6 5 7 10 4 6 -3
10 -11 10 -16z m754 -4 c-14 -14 -43 -32 -65 -39 -36 -13 -39 -12 -39 4 0 10
8 20 18 24 9 3 24 9 32 12 8 3 7 -2 -4 -10 -31 -25 -2 -18 35 8 45 32 54 32
23 1z m481 6 c-3 -6 -11 -11 -17 -11 -6 0 -6 6 2 15 14 17 26 13 15 -4z m115
9 c0 -5 -2 -10 -4 -10 -3 0 -8 5 -11 10 -3 6 -1 10 4 10 6 0 11 -4 11 -10z
m455 0 c3 -5 -8 -16 -24 -25 -19 -10 -32 -11 -36 -5 -4 6 -3 10 2 9 4 -1 19 2
32 7 23 7 24 8 5 15 -16 6 -16 8 -2 8 9 1 19 -3 23 -9z m-3325 -20 c0 -5 -4
-10 -10 -10 -5 0 -10 5 -10 10 0 6 5 10 10 10 6 0 10 -4 10 -10z m311 -55 c8
-15 5 -14 -13 5 -13 14 -27 34 -31 45 -6 16 -3 15 13 -5 11 -14 25 -34 31 -45z
m1245 50 c-11 -8 -25 -15 -30 -16 -6 0 -2 -4 9 -9 16 -7 17 -9 3 -9 -27 -1
-30 16 -6 33 28 20 50 20 24 1z m2078 -25 c-6 -5 -24 21 -24 34 0 6 6 1 14
-10 8 -10 12 -21 10 -24z m306 30 c0 -5 -5 -10 -11 -10 -5 0 -7 5 -4 10 3 6 8
10 11 10 2 0 4 -4 4 -10z m-1220 -5 c0 -2 -10 -9 -22 -15 -22 -11 -22 -10 -4
4 21 17 26 19 26 11z m365 -5 c-3 -5 -11 -10 -16 -10 -6 0 -7 5 -4 10 3 6 11
10 16 10 6 0 7 -4 4 -10z m85 0 c0 -5 -4 -10 -9 -10 -6 0 -13 5 -16 10 -3 6 1
10 9 10 9 0 16 -4 16 -10z m-2640 -4 c0 -3 -4 -8 -10 -11 -5 -3 -10 -1 -10 4
0 6 5 11 10 11 6 0 10 -2 10 -4z m1065 -6 c-27 -12 -43 -12 -25 0 8 5 22 9 30
9 10 0 8 -3 -5 -9z m1375 0 c0 -5 -7 -10 -15 -10 -8 0 -15 5 -15 10 0 6 7 10
15 10 8 0 15 -4 15 -10z m600 -9 c0 -5 -7 -12 -16 -15 -14 -5 -15 -4 -4 9 14
17 20 19 20 6z m-2323 -23 c-3 -8 -6 -5 -6 6 -1 11 2 17 5 13 3 -3 4 -12 1
-19z m180 -2 c-2 -6 -12 -12 -23 -13 -18 -3 -18 -2 1 7 18 9 18 10 -5 6 -14
-2 -34 -6 -45 -10 -15 -5 -14 -4 3 5 12 7 22 15 22 19 0 4 11 5 25 2 14 -2 24
-10 22 -16z m2472 7 c7 -15 5 -18 -14 -18 -19 0 -21 3 -14 18 5 9 12 17 14 17
2 0 9 -8 14 -17z m-3853 -10 c3 -10 10 -27 16 -38 10 -18 9 -19 -5 -6 -10 7
-17 19 -17 27 0 7 -4 16 -10 19 -6 4 -7 -1 -3 -12 6 -15 5 -16 -9 -3 -11 11
-12 17 -4 22 18 12 26 9 32 -9z m954 7 c0 -5 16 -12 35 -16 19 -3 38 -10 40
-15 3 -4 -16 -2 -42 6 -26 8 -52 15 -56 15 -5 0 -5 5 -2 10 8 13 25 13 25 0z
m1906 -2 c5 -7 3 -8 -6 -3 -10 6 -12 4 -6 -11 5 -14 4 -16 -5 -7 -6 6 -8 16
-5 22 9 14 13 14 22 -1z m-556 -2 c0 -11 -19 -15 -25 -6 -3 5 1 10 9 10 9 0
16 -2 16 -4z m933 -3 c-7 -2 -19 -2 -25 0 -7 3 -2 5 12 5 14 0 19 -2 13 -5z
m-1985 -23 c-7 -10 -14 -17 -17 -15 -4 4 18 35 25 35 2 0 -1 -9 -8 -20z m449
14 c-3 -3 -12 -4 -19 -1 -8 3 -5 6 6 6 11 1 17 -2 13 -5z m373 2 c0 -2 -11 -6
-25 -8 -13 -3 -22 -1 -19 3 5 9 44 13 44 5z m-1820 -12 c0 -3 -6 -12 -14 -19
-12 -12 -15 -12 -19 -1 -3 8 -3 17 0 20 8 8 33 8 33 0z m630 -4 c0 -5 -2 -10
-4 -10 -3 0 -8 5 -11 10 -3 6 -1 10 4 10 6 0 11 -4 11 -10z m340 -25 c0 -5 -5
-3 -10 5 -5 8 -10 20 -10 25 0 6 5 3 10 -5 5 -8 10 -19 10 -25z m213 4 c7 -24
5 -24 -22 5 -22 23 -22 24 -3 19 11 -2 22 -13 25 -24z m-1143 0 c-7 -11 -14
-18 -17 -15 -3 3 0 12 7 21 18 21 23 19 10 -6z m1367 15 c-3 -3 -12 -4 -19 -1
-8 3 -5 6 6 6 11 1 17 -2 13 -5z m63 -3 c0 -5 -7 -11 -15 -15 -15 -5 -20 5 -8
17 9 10 23 9 23 -2z m334 0 c3 -5 -3 -11 -15 -14 -16 -4 -18 -3 -8 9 13 16 16
17 23 5z m-271 -26 c-10 -7 -21 -11 -25 -9 -12 8 16 32 30 27 9 -4 8 -9 -5
-18z m1665 5 c-7 -10 -14 -17 -17 -15 -4 4 18 35 25 35 2 0 -1 -9 -8 -20z
m-2614 -6 c3 -8 2 -12 -4 -9 -6 3 -10 10 -10 16 0 14 7 11 14 -7z m1151 6 c-3
-5 -18 -10 -33 -9 l-27 1 25 8 c35 11 42 11 35 0z m-1945 -10 c0 -5 -5 -10
-11 -10 -5 0 -7 5 -4 10 3 6 8 10 11 10 2 0 4 -4 4 -10z m1545 0 c3 -5 -1 -10
-10 -10 -9 0 -13 -4 -10 -10 3 -5 -1 -10 -9 -10 -19 0 -21 26 -3 33 19 8 25 8
32 -3z m482 4 c-3 -3 -12 -4 -19 -1 -8 3 -5 6 6 6 11 1 17 -2 13 -5z m563 -8
c-6 -8 -19 -12 -27 -9 -14 6 -14 8 3 14 30 12 37 10 24 -5z m580 4 c0 -5 -5
-10 -11 -10 -5 0 -7 5 -4 10 3 6 8 10 11 10 2 0 4 -4 4 -10z m-2893 -32 c-3
-8 -6 -5 -6 6 -1 11 2 17 5 13 3 -3 4 -12 1 -19z m303 14 c0 -5 -11 -14 -25
-20 -14 -6 -25 -8 -25 -4 0 6 9 12 48 31 1 0 2 -3 2 -7z m1787 2 c-3 -3 -12
-4 -19 -1 -8 3 -5 6 6 6 11 1 17 -2 13 -5z m68 -4 c13 -6 15 -9 5 -9 -8 0 -22
4 -30 9 -18 12 -2 12 25 0z m185 0 c0 -5 -7 -10 -15 -10 -8 0 -15 5 -15 10 0
6 7 10 15 10 8 0 15 -4 15 -10z m470 -11 c0 -5 -2 -9 -4 -9 -2 0 -13 -3 -23
-7 -15 -6 -16 -4 -6 9 7 8 10 18 6 22 -4 4 0 4 10 0 9 -3 17 -10 17 -15z m600
17 c0 -2 -7 -7 -16 -10 -8 -3 -12 -2 -9 4 6 10 25 14 25 6z m-2045 -12 c13 -5
14 -8 3 -15 -19 -13 -28 -11 -28 6 0 17 2 18 25 9z m635 -4 c0 -5 -4 -10 -10
-10 -5 0 -10 5 -10 10 0 6 5 10 10 10 6 0 10 -4 10 -10z m207 4 c-3 -3 -12 -4
-19 -1 -8 3 -5 6 6 6 11 1 17 -2 13 -5z m870 -10 c-3 -3 -12 -4 -19 -1 -8 3
-5 6 6 6 11 1 17 -2 13 -5z m-3268 -41 l21 -38 -25 30 c-23 28 -31 45 -21 45
2 0 14 -17 25 -37z m241 27 c13 -8 13 -10 -2 -10 -9 0 -20 5 -23 10 -8 13 5
13 25 0z m829 -2 c-1 -20 -18 -55 -18 -39 -1 7 -7 11 -15 8 -7 -3 -19 0 -25 6
-15 15 -14 32 2 20 18 -15 49 -12 43 4 -3 7 -1 13 4 13 6 0 10 -6 9 -12z
m1495 3 c3 -5 -5 -8 -19 -7 -14 0 -25 4 -25 9 0 10 38 9 44 -2z m240 -7 c5
-14 4 -15 -9 -4 -17 14 -19 20 -6 20 5 0 12 -7 15 -16z m-2464 2 c0 -11 -19
-15 -25 -6 -3 5 1 10 9 10 9 0 16 -2 16 -4z m77 -2 c-3 -3 -12 -4 -19 -1 -8 3
-5 6 6 6 11 1 17 -2 13 -5z m73 2 c0 -3 -4 -8 -10 -11 -5 -3 -10 -1 -10 4 0 6
5 11 10 11 6 0 10 -2 10 -4z m480 -17 c0 -14 -16 -11 -29 5 -10 12 -8 13 8 9
12 -3 21 -9 21 -14z m-253 -11 c-3 -8 -6 -5 -6 6 -1 11 2 17 5 13 3 -3 4 -12
1 -19z m-330 6 c-3 -3 -12 -4 -19 -1 -8 3 -5 6 6 6 11 1 17 -2 13 -5z m298 -4
c3 -5 1 -10 -4 -10 -6 0 -11 5 -11 10 0 6 2 10 4 10 3 0 8 -4 11 -10z m2515 0
c0 -5 -2 -10 -4 -10 -3 0 -8 5 -11 10 -3 6 -1 10 4 10 6 0 11 -4 11 -10z
m-2200 -10 c0 -5 -5 -10 -11 -10 -5 0 -7 5 -4 10 3 6 8 10 11 10 2 0 4 -4 4
-10z m428 1 c5 -1 -25 -31 -31 -31 -3 0 -7 8 -9 18 -5 17 9 21 40 13z m781 7
c-2 -2 -20 -16 -39 -33 -19 -16 -28 -22 -21 -12 20 25 5 34 -20 12 -17 -17
-22 -17 -29 -5 -16 25 -12 28 30 26 22 0 40 2 40 7 0 4 10 7 22 7 12 0 19 -1
17 -2z m396 -28 l20 -25 -22 19 c-13 11 -23 24 -23 29 0 6 1 8 3 6 1 -2 11
-15 22 -29z m640 20 c3 -5 1 -10 -4 -10 -6 0 -11 5 -11 10 0 6 2 10 4 10 3 0
8 -4 11 -10z m222 -22 c-3 -8 -6 -5 -6 6 -1 11 2 17 5 13 3 -3 4 -12 1 -19z
m-1869 3 c17 11 24 11 34 1 9 -9 6 -12 -15 -13 -15 -1 -32 -2 -39 -3 -6 -1
-13 6 -15 14 -4 12 -3 12 5 2 8 -12 13 -12 30 -1z m1952 -6 c-7 -8 -17 -15
-22 -15 -6 0 -5 7 2 15 7 8 17 15 22 15 6 0 5 -7 -2 -15z m-3097 -16 c3 -13 1
-19 -6 -16 -15 5 -22 37 -9 37 5 0 12 -9 15 -21z m968 -16 c-12 -20 -14 -14
-5 12 4 9 9 14 11 11 3 -2 0 -13 -6 -23z m1473 6 c-6 -11 -24 -2 -24 11 0 5 7
7 15 4 8 -4 12 -10 9 -15z m-2801 -10 c-6 -6 -17 -8 -24 -3 -9 5 -8 9 7 14 23
9 31 3 17 -11z m3077 13 c0 -5 -7 -9 -15 -9 -8 0 -15 4 -15 9 0 4 7 8 15 8 8
0 15 -4 15 -8z m-2660 -20 c0 -4 -9 -8 -19 -8 -15 0 -17 3 -9 13 10 12 28 9
28 -5z m810 8 c0 -5 -4 -10 -10 -10 -5 0 -10 5 -10 10 0 6 5 10 10 10 6 0 10
-4 10 -10z m-595 -29 c-6 -5 -25 10 -25 20 0 5 6 4 14 -3 8 -7 12 -15 11 -17z
m1927 15 c7 4 8 2 4 -5 -9 -13 -26 -5 -25 12 0 9 2 8 6 -1 2 -6 10 -9 15 -6z
m473 4 c-3 -5 -12 -10 -18 -10 -7 0 -6 4 3 10 19 12 23 12 15 0z m349 -13
c-23 -13 -66 -18 -59 -7 3 5 12 7 19 4 7 -3 19 2 26 10 7 9 17 13 22 10 6 -4
3 -11 -8 -17z m-3304 2 c0 -6 -9 -9 -20 -6 -11 3 -18 1 -14 -4 3 -5 0 -9 -5
-9 -6 0 -11 4 -11 10 0 5 -8 7 -17 4 -15 -5 -16 -4 -3 5 20 14 70 14 70 0z
m850 -1 c0 -3 -9 -6 -20 -5 -11 1 -20 5 -20 9 0 3 9 6 20 5 11 -1 20 -5 20 -9z
m615 -4 c-9 -9 -19 -13 -23 -10 -3 4 0 11 8 16 24 15 33 11 15 -6z m-754 -17
c-10 -9 -11 -8 -5 6 3 10 9 15 12 12 3 -3 0 -11 -7 -18z m-116 -5 c-3 -3 -11
0 -18 7 -9 10 -8 11 6 5 10 -3 15 -9 12 -12z m1035 14 c0 -11 -19 -15 -25 -6
-3 5 1 10 9 10 9 0 16 -2 16 -4z m-1595 -34 c-5 -24 -2 -30 21 -41 15 -6 24
-14 21 -17 -4 -4 -38 12 -66 33 -5 3 20 53 26 53 3 0 2 -13 -2 -28z m1052 22
c-3 -3 -12 -4 -19 -1 -8 3 -5 6 6 6 11 1 17 -2 13 -5z m340 -31 c-9 -9 -20
-13 -24 -9 -5 5 -2 11 5 13 6 3 12 12 12 21 0 12 3 13 12 4 10 -9 8 -16 -5
-29z m469 20 c-4 -9 -1 -20 5 -24 6 -4 8 -12 4 -19 -6 -10 -10 -8 -17 4 -9 16
-3 56 9 56 3 0 2 -8 -1 -17z m264 13 c0 -2 -7 -7 -16 -10 -8 -3 -12 -2 -9 4 6
10 25 14 25 6z m112 -43 c-2 -7 -8 -13 -14 -13 -5 0 -7 4 -4 9 4 5 -6 14 -21
19 -18 7 -22 11 -10 11 9 1 17 6 17 13 0 6 8 3 19 -8 10 -10 16 -25 13 -31z
m246 22 c12 -14 18 -25 13 -25 -5 0 -16 11 -25 25 -9 14 -15 25 -13 25 2 0 13
-11 25 -25z m715 -5 c-6 -24 -19 -33 -53 -38 l-24 -3 19 23 c42 49 68 57 58
18z m-2423 16 c0 -3 -4 -8 -10 -11 -5 -3 -10 -1 -10 4 0 6 5 11 10 11 6 0 10
-2 10 -4z m350 -6 c0 -5 -2 -10 -4 -10 -3 0 -8 5 -11 10 -3 6 -1 10 4 10 6 0
11 -4 11 -10z m385 0 c3 -5 1 -10 -4 -10 -6 0 -11 5 -11 10 0 6 2 10 4 10 3 0
8 -4 11 -10z m580 -10 c3 -5 1 -10 -4 -10 -6 0 -11 5 -11 10 0 6 2 10 4 10 3
0 8 -4 11 -10z m55 0 c-20 -13 -33 -13 -25 0 3 6 14 10 23 10 15 0 15 -2 2
-10z m-1795 -10 c3 -5 1 -10 -4 -10 -6 0 -11 5 -11 10 0 6 2 10 4 10 3 0 8 -4
11 -10z m421 -43 c-2 -7 -5 -4 -5 6 -1 9 -6 17 -12 17 -6 0 -9 -9 -6 -20 7
-26 -9 -26 -23 -1 -13 26 -13 31 4 25 8 -3 17 0 21 7 10 15 29 -16 21 -34z
m2060 34 c-4 -5 0 -11 6 -14 23 -8 -9 -30 -46 -31 -19 -1 -38 -5 -42 -9 -4 -4
-11 -7 -16 -7 -5 0 -3 7 6 15 8 8 23 15 33 15 10 0 25 9 33 20 14 19 37 29 26
11z m-339 -29 c15 12 15 11 3 -9 -17 -27 -30 -20 -29 15 2 24 2 25 6 4 4 -20
7 -21 20 -10z m-1102 9 c3 -5 1 -12 -5 -16 -5 -3 -10 1 -10 9 0 18 6 21 15 7z
m442 -13 c-3 -8 -6 -5 -6 6 -1 11 2 17 5 13 3 -3 4 -12 1 -19z m233 7 c0 -8
-7 -15 -15 -15 -8 0 -15 5 -15 11 0 5 5 7 10 4 6 -3 10 -1 10 4 0 6 2 11 5 11
3 0 5 -7 5 -15z m1040 5 c8 -5 11 -12 8 -16 -4 -3 -14 1 -23 10 -18 17 -9 21
15 6z m-3025 -10 c3 -5 -1 -10 -9 -10 -9 0 -16 5 -16 10 0 6 4 10 9 10 6 0 13
-4 16 -10z m1351 -5 c-11 -8 -22 -12 -25 -9 -6 6 19 24 34 24 6 -1 1 -7 -9
-15z m-1316 1 c0 -3 -4 -8 -10 -11 -5 -3 -10 -1 -10 4 0 6 5 11 10 11 6 0 10
-2 10 -4z m606 -43 c-8 -8 -12 -3 -21 27 l-7 25 17 -23 c9 -13 14 -26 11 -29z
m1094 37 c0 -5 -5 -10 -11 -10 -5 0 -7 5 -4 10 3 6 8 10 11 10 2 0 4 -4 4 -10z
m25 -20 c-4 -6 -1 -19 7 -28 12 -15 11 -16 -4 -3 -20 15 -24 41 -7 41 5 0 7
-5 4 -10z m-1385 -15 c0 -11 -29 -11 -33 -1 -4 10 1 12 14 9 10 -3 19 -7 19
-8z m1577 -7 c-3 -8 -6 -5 -6 6 -1 11 2 17 5 13 3 -3 4 -12 1 -19z m-670 -19
c-7 -12 -13 -15 -16 -7 -2 7 1 14 8 16 6 2 8 9 5 14 -4 7 -2 8 4 4 9 -5 8 -12
-1 -27z m1143 10 c0 -11 -4 -18 -10 -14 -5 3 -7 12 -3 20 7 21 13 19 13 -6z
m578 7 c-42 -29 -108 -63 -108 -57 0 5 20 20 45 32 24 12 42 26 39 30 -3 5 2
6 11 3 9 -4 15 -7 13 -8z m-2948 -18 c0 -6 -6 -5 -15 2 -8 7 -15 14 -15 16 0
2 7 1 15 -2 8 -4 15 -11 15 -16z m586 0 c4 -7 4 -10 -1 -6 -4 4 -14 3 -22 -3
-8 -8 -13 -8 -13 -1 0 6 6 13 13 15 6 3 13 6 14 6 1 1 5 -5 9 -11z m1348 -21
c7 -6 6 -7 -4 -4 -8 2 -16 12 -17 23 -2 13 -1 15 4 4 3 -8 11 -19 17 -23z
m-1894 19 c0 -2 -7 -6 -15 -10 -8 -3 -15 -1 -15 4 0 6 7 10 15 10 8 0 15 -2
15 -4z m347 -2 c-3 -3 -12 -4 -19 -1 -8 3 -5 6 6 6 11 1 17 -2 13 -5z m2063
-24 c0 -22 16 -35 23 -20 3 6 4 5 3 -1 -3 -15 -44 -20 -53 -6 -3 5 0 13 7 17
7 4 10 15 7 25 -4 9 -3 14 3 10 6 -3 10 -15 10 -25z m-1920 5 c0 -8 -2 -15 -4
-15 -2 0 -6 7 -10 15 -3 8 -1 15 4 15 6 0 10 -7 10 -15z m1554 0 c-26 -20 -50
-20 -32 0 7 8 22 14 32 15 20 0 20 0 0 -15z m67 -4 c7 11 9 10 9 -3 0 -10 -7
-18 -15 -18 -8 0 -15 2 -15 4 0 2 -3 13 -6 23 -5 17 -5 17 6 -1 10 -15 14 -16
21 -5z m-1561 -1 c0 -5 -7 -10 -16 -10 -14 0 -14 -3 -4 -15 9 -10 9 -15 1 -15
-6 0 -11 2 -11 4 0 2 -3 11 -6 19 -3 10 2 17 13 20 10 3 19 5 21 6 1 0 2 -3 2
-9z m285 -10 c3 -5 1 -10 -4 -10 -6 0 -11 5 -11 10 0 6 2 10 4 10 3 0 8 -4 11
-10z m-67 -18 c2 -7 -3 -10 -12 -6 -12 5 -15 2 -10 -12 5 -16 4 -16 -5 -4 -6
8 -11 20 -11 27 0 14 33 10 38 -5z m376 12 c9 -3 16 -12 16 -20 0 -12 -4 -12
-20 -2 -30 19 -27 34 4 22z m299 -1 c-7 -2 -19 -2 -25 0 -7 3 -2 5 12 5 14 0
19 -2 13 -5z m1057 3 c0 -2 -6 -9 -13 -15 -10 -8 -14 -7 -14 4 0 8 6 15 14 15
7 0 13 -2 13 -4z m-2310 -16 c0 -5 -5 -10 -11 -10 -5 0 -7 5 -4 10 3 6 8 10
11 10 2 0 4 -4 4 -10z m740 0 c0 -5 -4 -10 -10 -10 -5 0 -10 5 -10 10 0 6 5
10 10 10 6 0 10 -4 10 -10z m475 -1 c8 -11 -25 -40 -37 -33 -8 5 13 44 24 44
4 0 10 -5 13 -11z m95 7 c0 -3 -4 -8 -10 -11 -5 -3 -10 -1 -10 4 0 6 5 11 10
11 6 0 10 -2 10 -4z m462 -21 c27 -23 28 -25 8 -25 -12 0 -18 -4 -15 -11 4 -6
-2 -5 -14 2 -14 10 -17 15 -8 21 9 6 9 8 0 8 -7 0 -13 7 -13 15 0 21 7 19 42
-10z m-1469 0 c-3 -9 -8 -14 -10 -11 -3 3 -2 9 2 15 9 16 15 13 8 -4z m1042
-13 c-3 -3 -11 0 -18 7 -9 10 -8 11 6 5 10 -3 15 -9 12 -12z m550 8 c-3 -5
-16 -10 -28 -9 -20 1 -20 2 3 9 14 4 26 8 28 9 2 1 0 -3 -3 -9z m238 -4 c6
-16 -2 -28 -14 -20 -12 7 -11 34 0 34 5 0 11 -6 14 -14z m357 4 c-8 -5 -22 -9
-30 -9 -10 0 -8 3 5 9 27 12 43 12 25 0z m-1950 -15 c0 -8 -4 -15 -10 -15 -5
0 -7 7 -4 15 4 8 8 15 10 15 2 0 4 -7 4 -15z m167 -17 c-3 -8 -6 -5 -6 6 -1
11 2 17 5 13 3 -3 4 -12 1 -19z m1370 -35 c-3 -10 -5 -2 -5 17 0 19 2 27 5 18
2 -10 2 -26 0 -35z m-744 22 c-3 -9 -8 -14 -10 -11 -3 3 -2 9 2 15 9 16 15 13
8 -4z m514 9 c-3 -3 -12 -4 -19 -1 -8 3 -5 6 6 6 11 1 17 -2 13 -5z m-1507
-14 c0 -5 -4 -10 -10 -10 -5 0 -10 5 -10 10 0 6 5 10 10 10 6 0 10 -4 10 -10z
m207 -22 c-3 -7 -5 -2 -5 12 0 14 2 19 5 13 2 -7 2 -19 0 -25z m624 9 c-13
-13 -26 -3 -16 12 3 6 11 8 17 5 6 -4 6 -10 -1 -17z m-1021 -7 c0 -5 -7 -10
-15 -10 -8 0 -15 5 -15 10 0 6 7 10 15 10 8 0 15 -4 15 -10z m2201 -7 c13 -15
12 -15 -11 -3 -34 17 -36 20 -18 20 9 0 22 -7 29 -17z m-2265 -6 c16 6 17 5 4
-9 -15 -16 -41 -10 -56 13 -5 8 -1 8 14 0 11 -6 29 -8 38 -4z m1281 -9 c-3 -8
-6 -5 -6 6 -1 11 2 17 5 13 3 -3 4 -12 1 -19z m20 0 c-3 -8 -6 -5 -6 6 -1 11
2 17 5 13 3 -3 4 -12 1 -19z m683 -8 c0 -5 -4 -10 -10 -10 -5 0 -10 5 -10 10
0 6 5 10 10 10 6 0 10 -4 10 -10z m190 0 c0 -5 -12 -10 -27 -10 -22 0 -25 2
-13 10 20 13 40 13 40 0z m125 -3 c-23 -16 -55 -28 -55 -22 0 6 53 34 65 35 5
0 1 -6 -10 -13z m-330 -36 c-6 -5 -25 10 -25 20 0 5 6 4 14 -3 8 -7 12 -15 11
-17z m-1194 -8 c-12 -20 -14 -14 -5 12 4 9 9 14 11 11 3 -2 0 -13 -6 -23z m89
7 c0 -11 -4 -20 -9 -20 -5 0 -7 9 -4 20 3 11 7 20 9 20 2 0 4 -9 4 -20z m1065
1 c-3 -6 -11 -11 -16 -11 -5 0 -4 6 3 14 14 16 24 13 13 -3z m-1811 -7 c4 -11
1 -14 -11 -12 -9 2 -18 9 -21 16 -6 18 25 15 32 -4z m962 -6 c5 -8 2 -9 -9 -5
-10 4 -17 1 -17 -5 0 -6 -3 -9 -6 -5 -7 7 4 27 16 27 5 0 12 -5 16 -12z m200
-7 c1 -6 0 -7 -2 -2 -3 6 -11 8 -19 5 -7 -3 -15 -1 -19 4 -3 5 5 8 16 7 12 -1
23 -7 24 -14z m254 -1 c0 -5 -2 -10 -4 -10 -3 0 -8 5 -11 10 -3 6 -1 10 4 10
6 0 11 -4 11 -10z m635 0 c8 -13 -5 -13 -25 0 -13 8 -13 10 2 10 9 0 20 -4 23
-10z m-1971 -11 c-4 -7 -44 0 -44 7 0 2 11 3 24 2 14 -1 23 -5 20 -9z m392
-15 c9 3 12 1 9 -4 -3 -6 -14 -10 -25 -10 -14 0 -17 5 -12 23 5 19 7 19 10 4
2 -11 9 -16 18 -13z m524 16 c0 -5 -4 -10 -10 -10 -5 0 -10 5 -10 10 0 6 5 10
10 10 6 0 10 -4 10 -10z m963 3 c-13 -2 -23 -9 -23 -14 0 -5 -8 -9 -17 -9 -16
1 -16 2 1 15 11 8 29 14 40 14 19 -2 19 -2 -1 -6z m-573 -19 c0 -8 -5 -12 -10
-9 -6 4 -8 11 -5 16 9 14 15 11 15 -7z m325 6 c-8 -13 11 -13 36 0 11 6 25 8
31 4 7 -5 -4 -12 -28 -19 -26 -7 -41 -8 -46 -1 -7 10 -2 26 8 26 3 0 2 -4 -1
-10z m-1588 -6 c-3 -3 -12 -4 -19 -1 -8 3 -5 6 6 6 11 1 17 -2 13 -5z m1233
-26 c0 -16 -3 -19 -11 -11 -6 6 -8 16 -5 22 11 17 16 13 16 -11z m74 -4 c9
-22 8 -23 -14 -17 -21 5 -25 15 -13 26 11 11 20 8 27 -9z m-897 0 c-3 -3 -12
-4 -19 -1 -8 3 -5 6 6 6 11 1 17 -2 13 -5z m257 -43 c9 -12 8 -12 -11 -2 -26
13 -26 13 -16 38 7 17 8 17 11 -2 2 -11 9 -26 16 -34z m216 39 c0 -5 -4 -10
-10 -10 -5 0 -10 5 -10 10 0 6 5 10 10 10 6 0 10 -4 10 -10z m100 0 c0 -5 -4
-10 -10 -10 -5 0 -10 5 -10 10 0 6 5 10 10 10 6 0 10 -4 10 -10z m544 -11 c-3
-5 -10 -7 -15 -3 -5 3 -7 10 -3 15 3 5 10 7 15 3 5 -3 7 -10 3 -15z m-609 1
c3 -6 -1 -7 -9 -4 -18 7 -21 14 -7 14 6 0 13 -4 16 -10z m865 0 c-8 -5 -19
-10 -25 -10 -5 0 -3 5 5 10 8 5 20 10 25 10 6 0 3 -5 -5 -10z m-1703 -6 c-3
-3 -12 -4 -19 -1 -8 3 -5 6 6 6 11 1 17 -2 13 -5z m1610 0 c-3 -3 -12 -4 -19
-1 -8 3 -5 6 6 6 11 1 17 -2 13 -5z m-1510 -10 c-3 -3 -12 -4 -19 -1 -8 3 -5
6 6 6 11 1 17 -2 13 -5z m1413 -4 c0 -5 -5 -10 -11 -10 -5 0 -7 5 -4 10 3 6 8
10 11 10 2 0 4 -4 4 -10z m103 -7 c-7 -2 -19 -2 -25 0 -7 3 -2 5 12 5 14 0 19
-2 13 -5z m-1193 -17 c0 -3 -4 -8 -10 -11 -5 -3 -10 -1 -10 4 0 6 5 11 10 11
6 0 10 -2 10 -4z m685 -35 c-6 -5 -25 10 -25 20 0 5 6 4 14 -3 8 -7 12 -15 11
-17z m-479 4 c14 -13 14 -15 0 -15 -9 0 -16 -4 -16 -10 0 -5 -7 -10 -16 -10
-10 0 -12 4 -7 13 4 6 8 15 9 20 3 15 4 17 10 17 3 0 12 -7 20 -15z m-88 -13
c2 -7 -1 -12 -8 -12 -6 0 -9 4 -6 9 4 5 1 12 -4 14 -6 3 -5 4 2 3 6 -1 14 -8
16 -14z m-125 1 c-7 -2 -19 -2 -25 0 -7 3 -2 5 12 5 14 0 19 -2 13 -5z m832
-3 c13 -6 2 -7 -30 -3 -27 3 -52 7 -54 9 -9 8 65 2 84 -6z m-922 -7 c-7 -2
-21 -2 -30 0 -10 3 -4 5 12 5 17 0 24 -2 18 -5z m170 0 c-7 -2 -21 -2 -30 0
-10 3 -4 5 12 5 17 0 24 -2 18 -5z m874 1 c-3 -3 -12 -4 -19 -1 -8 3 -5 6 6 6
11 1 17 -2 13 -5z m-50 -10 c-3 -3 -12 -4 -19 -1 -8 3 -5 6 6 6 11 1 17 -2 13
-5z m-850 -20 c-3 -3 -12 -4 -19 -1 -8 3 -5 6 6 6 11 1 17 -2 13 -5z m253 -4
c13 -9 13 -10 0 -10 -8 0 -22 5 -30 10 -13 9 -13 10 0 10 8 0 22 -5 30 -10z
m340 1 c0 -6 -9 -9 -20 -8 -11 1 -20 5 -20 9 0 4 9 8 20 8 11 0 20 -4 20 -9z
m-50 -5 c0 -2 -7 -7 -16 -10 -8 -3 -12 -2 -9 4 6 10 25 14 25 6z"/>
<path d="M3850 5789 c-612 -259 -1056 -330 -1495 -239 -80 17 -177 42 -216 56
-39 14 -73 23 -77 20 -3 -3 -9 -351 -13 -773 -4 -423 -10 -1043 -14 -1379 l-6
-611 67 -99 c248 -366 396 -555 565 -721 247 -243 452 -374 864 -551 81 -35
358 -137 396 -147 20 -5 46 3 100 30 96 48 304 161 349 190 19 12 64 39 100
60 538 319 910 697 1118 1135 l41 85 -35 1395 c-19 767 -37 1396 -39 1398 -2
2 -61 -7 -132 -21 -70 -14 -172 -31 -226 -38 -126 -15 -402 -7 -517 16 -176
34 -393 103 -615 194 -55 23 -104 41 -110 41 -5 0 -53 -19 -105 -41z m-1633
-271 c53 -22 61 -35 47 -72 -8 -21 -19 -20 -81 6 -54 24 -61 35 -43 69 13 24
13 24 77 -3z m1895 6 c257 -33 505 -129 641 -248 l29 -25 45 20 c57 24 57 24
72 -8 11 -24 10 -29 -9 -45 -12 -10 -28 -18 -36 -18 -19 0 -19 1 18 -72 31
-59 33 -69 32 -159 l-1 -96 -45 -69 c-25 -38 -55 -77 -66 -88 -26 -22 -20 -36
15 -36 23 0 25 -3 19 -32 -3 -17 -8 -34 -11 -36 -2 -3 -33 0 -67 5 -61 10 -65
10 -118 -21 -30 -18 -68 -37 -85 -44 -16 -6 -66 -25 -110 -41 -78 -29 -79 -30
-40 -32 22 -1 45 -3 50 -4 6 -2 214 -3 463 -4 l452 -1 0 -35 0 -35 -539 0
-539 0 -114 -51 c-62 -27 -137 -61 -165 -74 l-53 -25 -147 40 c-82 22 -197 54
-258 72 l-110 32 -465 6 -465 5 3 30 c2 17 5 31 6 32 1 1 175 3 386 4 212 1
403 4 424 7 39 4 37 6 -65 42 -57 20 -141 57 -186 83 -45 26 -93 47 -107 47
-18 0 -26 7 -31 28 -3 15 -22 45 -41 67 -19 22 -47 62 -60 88 l-25 49 -70 -7
-69 -7 0 36 c0 38 6 41 95 48 24 2 31 8 33 29 3 24 -2 27 -63 44 -66 18 -67
18 -61 48 3 17 8 33 11 35 2 3 31 -2 63 -10 l59 -15 27 57 c14 32 26 63 26 69
0 6 6 11 13 11 7 0 26 14 43 31 128 136 387 240 689 278 118 15 374 12 507 -5z
m1327 -35 c10 -30 10 -31 -45 -55 -30 -13 -58 -24 -63 -24 -9 0 -36 58 -30 65
7 6 103 44 116 44 6 1 16 -13 22 -30z m-3036 -54 c55 -25 55 -26 44 -55 -14
-36 -18 -36 -84 -8 -54 24 -61 35 -43 69 14 24 17 24 83 -6z m2856 -22 c14
-31 12 -33 -58 -62 -57 -24 -66 -21 -76 20 -6 23 -2 28 42 47 63 28 77 27 92
-5z m-2682 -55 c27 -13 50 -23 51 -25 9 -5 -11 -63 -21 -63 -25 0 -117 46
-117 58 0 19 19 52 30 52 5 0 31 -10 57 -22z m2500 -22 l11 -34 -57 -25 -56
-25 -18 20 c-27 32 -17 50 43 74 30 13 58 23 61 24 3 0 10 -15 16 -34z m-2267
-94 c0 -19 -19 -52 -30 -52 -21 0 -110 46 -110 57 0 7 5 23 11 36 l11 24 59
-26 c32 -14 59 -32 59 -39z m-596 -2 c18 -6 26 -17 26 -32 0 -45 -11 -49 -71
-32 -67 20 -72 24 -63 59 6 25 9 27 45 21 21 -3 49 -10 63 -16z m3254 -36 c3
-31 2 -31 -59 -43 -67 -14 -79 -8 -79 35 0 17 9 23 43 32 71 17 92 12 95 -24z
m-3085 -7 c27 -7 48 -16 48 -20 -1 -4 -1 -15 -1 -24 0 -39 -13 -44 -75 -26
-33 9 -62 17 -63 19 -2 1 -1 16 3 33 7 35 16 37 88 18z m2891 -13 c3 -9 6 -26
6 -38 0 -20 -8 -25 -60 -36 -33 -7 -63 -11 -65 -8 -3 2 -8 18 -11 35 -6 30 -5
31 53 46 32 8 61 15 64 16 4 1 10 -6 13 -15z m-2708 -40 c44 -13 54 -19 54
-37 0 -43 -11 -47 -75 -31 -33 9 -62 17 -63 19 -8 7 10 65 20 65 5 0 34 -7 64
-16z m2519 -25 c4 -17 5 -33 2 -35 -2 -3 -30 -12 -62 -21 -62 -18 -75 -12 -75
33 0 18 10 24 58 37 31 8 60 15 64 16 3 1 9 -13 13 -30z m-2475 -224 c0 -33
-2 -35 -34 -35 -18 0 -47 -3 -63 -6 -28 -6 -31 -4 -36 28 -2 18 -3 36 0 41 2
4 33 7 69 7 l64 0 0 -35z m-195 -16 l0 -34 -67 -3 -68 -3 0 35 0 35 58 4 c78
4 77 5 77 -34z m2677 23 c3 -4 4 -20 1 -36 -6 -28 -6 -28 -64 -23 -73 6 -77 9
-71 48 l5 31 61 -7 c33 -3 64 -9 68 -13z m-2872 -36 c0 -30 -4 -34 -31 -40
-17 -3 -47 -6 -65 -6 -28 0 -35 4 -40 26 -8 32 1 41 46 47 89 10 90 10 90 -27z
m3051 24 c15 0 19 -8 19 -35 0 -33 -2 -35 -32 -35 -67 0 -108 12 -108 30 0 44
11 53 58 46 25 -3 53 -6 63 -6z m178 -16 c28 -6 31 -10 31 -42 l0 -35 -67 7
c-37 4 -68 8 -69 9 -1 1 1 17 3 35 5 29 9 32 38 32 18 0 47 -3 64 -6z m-2574
-195 c4 -17 3 -35 -2 -40 -4 -4 -35 -10 -68 -11 l-60 -3 -3 32 c-3 31 -2 32
50 41 29 5 58 10 65 11 6 0 14 -13 18 -30z m-193 -35 c2 -19 2 -37 -1 -38 -3
-2 -34 -6 -67 -10 -61 -7 -62 -7 -67 21 -7 36 -2 41 63 52 30 5 58 9 61 10 4
0 9 -15 11 -35z m2292 10 c44 -6 46 -8 46 -39 0 -17 -2 -34 -5 -36 -2 -3 -34
-1 -70 5 l-65 9 0 34 c0 37 6 39 94 27z m-2489 -44 l0 -35 -59 -8 c-32 -5 -60
-7 -62 -4 -2 2 -7 17 -10 34 -6 31 -6 31 47 41 78 14 84 12 84 -28z m2727 3
c7 -3 0 -62 -8 -72 -2 -2 -33 2 -69 9 -61 11 -66 15 -61 34 3 11 6 27 6 34 0
10 14 11 63 6 34 -4 65 -8 69 -11z m-2918 -63 c-6 -6 -38 -13 -72 -16 l-62 -7
0 36 0 35 63 9 62 8 9 -28 c6 -17 5 -32 0 -37z m3079 34 c37 -6 38 -8 31 -38
-3 -17 -8 -33 -10 -35 -2 -2 -32 2 -67 9 -58 11 -64 14 -60 33 10 46 13 49 40
43 16 -3 45 -8 66 -12z m-1815 -365 c81 -22 199 -55 263 -73 l116 -32 162 73
162 73 547 -2 547 -3 0 -35 0 -34 -533 3 -533 3 -152 -70 c-84 -39 -164 -73
-178 -77 -18 -4 -116 18 -302 69 l-276 76 -418 0 c-230 0 -428 0 -440 0 -18 0
-23 6 -23 28 0 16 3 32 7 35 3 4 208 7 455 7 l449 0 147 -41z m-42 -205 c71
-19 194 -53 274 -75 l145 -39 170 76 170 76 540 -7 540 -8 -1 -31 -1 -31 -539
0 -539 -1 -60 -28 c-229 -109 -256 -119 -302 -112 -24 3 -74 15 -111 25 -37
11 -143 41 -237 67 l-170 48 -447 -3 -448 -3 0 36 0 36 243 3 c133 1 332 3
443 5 l201 2 129 -36z m47 -209 c94 -26 216 -60 269 -76 l98 -28 166 76 166
75 544 -3 544 -4 0 -52 0 -53 -201 -2 -200 -3 45 -60 c25 -33 46 -65 46 -72 0
-11 -60 -63 -73 -63 -9 0 -117 145 -117 157 0 6 10 18 23 26 20 15 13 16 -105
16 -71 1 -128 -1 -128 -4 0 -3 20 -37 45 -77 25 -40 45 -76 45 -79 0 -9 -68
-49 -83 -49 -7 0 -34 37 -60 82 l-48 81 23 16 c12 9 29 19 38 23 8 4 -42 7
-112 9 -71 1 -143 2 -160 3 -36 3 -48 -2 -318 -125 l-65 -30 -255 73 -255 72
-320 3 -320 3 33 -21 c17 -11 32 -24 32 -29 0 -4 -21 -44 -46 -88 l-46 -81
-44 22 c-24 11 -44 26 -44 32 0 6 20 44 44 85 l44 75 -134 3 -134 3 0 48 c0
26 2 50 5 53 3 3 203 6 445 7 l440 2 173 -46z m849 -153 c45 -116 45 -116 -3
-135 -23 -9 -45 -14 -49 -12 -14 9 -72 165 -67 180 5 12 51 31 82 34 6 1 23
-30 37 -67z m-1322 28 c22 -11 40 -24 40 -29 0 -15 -72 -161 -82 -167 -14 -9
-88 27 -88 43 0 16 78 173 86 173 2 0 23 -9 44 -20z m303 -49 c4 -4 -2 -49
-15 -99 -24 -100 -24 -100 -91 -81 -29 8 -37 14 -33 27 3 9 10 37 16 62 28
114 28 113 74 106 22 -4 45 -11 49 -15z m218 0 c4 -3 1 -44 -7 -91 -7 -47 -13
-88 -13 -92 -1 -11 -73 -10 -90 1 -12 8 -12 23 -3 95 6 48 14 92 18 97 6 11
83 3 95 -10z m585 -80 l21 -93 -23 -8 c-12 -5 -35 -10 -50 -12 -25 -3 -28 1
-50 82 -13 47 -24 90 -24 97 0 11 73 33 95 29 5 -1 19 -44 31 -95z m-357 13
c31 -6 32 -8 27 -48 -3 -22 -8 -67 -11 -100 l-7 -58 -46 7 c-26 4 -49 8 -50
10 -2 2 -1 47 3 99 8 106 7 105 84 90z m195 -71 c3 -21 7 -67 8 -103 l3 -65
-52 -3 c-50 -3 -53 -2 -53 21 0 13 -3 58 -6 100 l-7 76 34 4 c19 2 41 5 51 5
12 2 18 -8 22 -35z m1131 -51 c55 -72 56 -74 38 -94 -10 -11 -30 -26 -44 -34
-26 -13 -28 -12 -55 29 -16 23 -35 48 -42 56 -7 8 -20 24 -29 37 -12 20 -13
26 -1 36 21 21 62 47 70 45 3 -1 32 -35 63 -75z m-2484 23 l40 -26 -33 -57
c-17 -31 -39 -69 -48 -84 -17 -32 -22 -33 -58 -13 -55 30 -55 30 -37 65 23 45
85 140 91 140 2 0 23 -11 45 -25z m2152 -51 c26 -41 47 -80 47 -87 0 -10 -69
-57 -83 -57 -11 0 -98 162 -94 174 6 14 52 43 72 45 6 0 31 -33 58 -75z m-306
-50 c39 -96 40 -102 8 -114 -70 -27 -68 -28 -103 62 -18 46 -32 88 -32 94 0
13 68 45 85 40 5 -1 24 -38 42 -82z m-1527 21 c0 -6 -18 -47 -40 -92 l-41 -81
-40 16 c-23 9 -43 21 -46 27 -2 7 14 51 37 98 l40 87 45 -22 c25 -12 45 -27
45 -33z m283 -26 c28 -8 37 -15 37 -32 0 -21 -35 -165 -42 -172 -8 -8 -98 20
-98 30 0 14 40 166 46 177 7 10 11 10 57 -3z m984 -90 c15 -67 18 -96 10 -101
-19 -12 -79 -20 -87 -11 -12 12 -51 175 -44 182 8 9 77 29 89 27 5 -2 20 -45
32 -97z m-718 81 c23 0 24 -1 17 -67 -13 -135 -12 -133 -62 -133 -31 0 -46 5
-50 15 -6 15 13 173 23 188 3 5 15 6 27 3 11 -3 32 -6 45 -6z m254 -77 l39 -6
-7 -81 c-9 -113 -10 -116 -50 -116 -64 0 -66 3 -59 99 8 123 3 117 77 104z
m1536 -69 l55 -77 -33 -29 c-18 -16 -40 -28 -48 -26 -9 2 -39 36 -67 77 l-51
73 35 29 c19 16 39 29 45 29 5 0 34 -35 64 -76z m-355 -41 c25 -43 46 -82 46
-88 0 -11 -63 -55 -79 -55 -9 0 -101 153 -101 170 0 9 65 49 82 50 4 0 28 -35
52 -77z m-2454 47 c22 -11 40 -23 40 -26 0 -8 -60 -115 -82 -146 l-19 -28 -39
20 c-21 11 -41 24 -44 28 -5 8 9 32 81 150 16 27 15 27 63 2z m1534 -76 c4
-53 6 -97 4 -99 -2 -2 -25 -5 -52 -6 l-49 -3 -4 49 c-1 28 -5 71 -7 96 -3 26
-2 50 1 53 4 3 27 6 53 6 l47 0 7 -96z m570 -45 c20 -49 34 -94 32 -98 -9 -14
-86 -35 -95 -25 -5 5 -22 46 -39 92 l-30 83 26 11 c21 8 55 22 68 27 1 1 18
-40 38 -90z m-1803 64 c21 -10 39 -24 39 -31 0 -13 -66 -152 -79 -165 -8 -8
-76 17 -86 32 -6 11 71 181 82 181 3 0 24 -8 44 -17z m413 -93 c5 -5 -1 -48
-14 -100 l-23 -92 -40 6 c-67 11 -67 11 -36 129 l22 79 41 -6 c22 -4 45 -11
50 -16z m1087 -51 c36 -130 36 -126 -18 -137 -56 -12 -55 -14 -78 82 -9 39
-18 78 -21 87 -3 12 6 19 38 26 24 6 47 10 52 9 5 -1 17 -31 27 -67z m-801 7
c-1 -22 -7 -68 -13 -101 l-13 -60 -44 4 c-25 1 -47 5 -49 7 -6 5 15 180 22
191 3 5 26 7 51 5 l46 -4 0 -42z m1969 -31 c28 -37 40 -62 36 -74 -5 -17 -71
-60 -78 -51 -1 3 -22 32 -46 64 l-44 59 32 29 c17 15 37 28 45 28 7 0 32 -25
55 -55z m-1693 -74 c-3 -36 -6 -81 -6 -99 l0 -33 -52 3 -53 3 2 50 c2 28 5 73
8 100 l6 50 51 -4 51 -3 -7 -67z m1319 17 c21 -35 45 -72 52 -84 12 -19 10
-23 -25 -48 -21 -14 -42 -26 -48 -26 -9 0 -104 153 -104 168 0 7 69 51 81 52
3 0 23 -28 44 -62z m-2741 31 c20 -12 36 -26 36 -32 0 -7 -11 -30 -25 -52 -13
-22 -29 -50 -34 -62 -13 -28 -30 -29 -75 -2 -26 15 -33 25 -28 37 15 38 74
132 82 132 5 0 25 -9 44 -21z m1700 -71 c3 -29 6 -74 6 -99 l0 -47 -46 -7
c-25 -3 -47 -5 -49 -3 -2 2 -7 49 -11 106 l-7 102 50 0 50 0 7 -52z m-1374 -3
c17 -9 30 -22 30 -30 0 -24 -73 -165 -86 -165 -18 0 -84 29 -84 38 0 4 17 44
37 89 41 89 51 95 103 68z m2011 -12 c6 -16 21 -56 34 -90 l24 -63 -27 -14
c-67 -34 -66 -35 -106 64 -20 49 -36 92 -36 95 0 7 63 33 83 34 10 1 22 -10
28 -26z m-1578 -84 c20 -5 37 -12 37 -14 0 -15 -43 -182 -49 -187 -7 -8 -81 9
-93 21 -7 6 10 79 38 174 6 20 15 21 67 6z m1266 -90 c14 -53 20 -94 15 -99
-5 -5 -29 -10 -53 -12 l-44 -3 -18 75 c-26 105 -25 118 9 123 69 10 66 14 91
-84z m-923 58 c4 -4 1 -49 -6 -102 l-13 -95 -41 6 c-65 9 -64 8 -56 56 4 24
11 68 14 99 l7 56 45 -7 c24 -4 47 -10 50 -13z m1766 -39 c8 -13 24 -39 36
-59 l22 -36 -40 -27 c-22 -14 -43 -26 -47 -26 -8 1 -73 102 -73 114 0 6 71 54
81 55 4 1 13 -9 21 -21z m-1471 -33 c3 -2 0 -48 -6 -102 l-10 -98 -45 3 c-25
2 -48 7 -51 10 -3 4 -1 49 4 100 l11 92 46 0 c26 0 49 -2 51 -5z m330 -135 c4
-52 5 -98 2 -102 -2 -5 -26 -8 -54 -8 -49 0 -49 0 -49 33 0 17 -3 62 -6 99
l-7 66 29 5 c78 12 78 12 85 -93z m-1531 70 c26 -13 37 -25 34 -34 -4 -11 -12
-13 -31 -5 -45 17 -63 30 -63 44 0 20 13 19 60 -5z m2272 -80 c25 -64 32 -92
24 -98 -24 -18 -77 -35 -86 -26 -9 10 -70 161 -70 173 0 8 65 38 85 40 6 1 27
-39 47 -89z m-1753 -45 c11 -6 -33 -188 -47 -193 -14 -4 -92 17 -92 26 0 4 10
47 22 96 l23 88 43 -6 c24 -3 47 -8 51 -11z m1379 -70 c12 -47 22 -92 22 -99
0 -11 -66 -36 -94 -36 -4 0 -46 169 -46 188 0 9 36 21 91 31 3 1 15 -37 27
-84z m-1033 5 c-1 -25 -4 -65 -7 -90 -4 -25 -7 -51 -7 -58 -1 -10 -13 -12 -48
-6 -27 3 -51 8 -54 10 -5 3 3 85 16 162 6 32 7 33 53 30 l47 -3 0 -45z m284
-36 c31 -6 32 -9 27 -43 -3 -20 -8 -65 -12 -100 l-6 -63 -46 6 c-25 3 -47 8
-50 10 -2 3 -1 48 3 100 8 106 7 105 84 90z m401 -76 c0 -18 3 -63 7 -100 l6
-68 -51 0 -51 0 -5 43 c-10 77 -13 147 -8 152 3 3 27 5 54 5 48 0 48 0 48 -32z
m829 -49 c17 -44 31 -86 31 -94 0 -11 -86 -43 -94 -34 -6 7 -66 168 -66 177 0
10 48 30 77 31 18 1 26 -12 52 -80z m-1968 -51 c42 -12 46 -24 28 -75 -10 -30
-11 -30 -52 -20 -23 5 -45 13 -49 16 -10 9 12 91 25 91 5 0 27 -5 48 -12z
m1539 -3 c0 -3 9 -40 20 -82 12 -42 20 -83 18 -91 -3 -16 -85 -45 -93 -32 -12
19 -45 184 -38 191 15 13 93 25 93 14z m-1122 -39 c2 -2 -2 -48 -9 -101 l-13
-97 -45 7 c-25 4 -49 9 -52 11 -3 2 0 43 7 91 8 48 14 92 14 97 0 8 88 1 98
-8z m295 -76 l29 0 -7 -67 c-12 -140 -10 -134 -63 -131 l-47 3 3 80 c4 113 8
128 35 121 12 -3 35 -6 50 -6z m451 -86 c3 -26 6 -70 6 -99 l0 -52 -42 -6
c-24 -3 -46 -3 -50 1 -4 4 -10 51 -14 105 l-7 97 50 0 50 0 7 -46z m450 -91
c21 -75 19 -81 -21 -92 -56 -16 -59 -15 -71 28 -17 55 -16 58 26 69 54 14 60
14 66 -5z m-1271 -30 c35 -5 38 -8 35 -37 -3 -30 -4 -31 -48 -28 -54 4 -65 12
-56 46 7 28 11 29 69 19z m364 -149 c-4 -37 -8 -68 -10 -70 -2 -2 -25 -1 -50
2 l-47 7 0 48 c0 73 5 79 63 79 l50 0 -6 -66z m478 -34 l0 -55 -46 -3 c-45 -3
-47 -2 -53 29 -12 62 -8 77 22 82 15 2 38 4 52 3 23 -1 25 -4 25 -56z"/>
<path d="M2906 5105 c-10 -16 -14 -35 -10 -52 4 -19 3 -24 -4 -15 -13 19 -22
-8 -21 -56 l1 -37 8 30 c7 26 8 24 7 -18 -1 -72 13 -69 15 4 1 35 3 73 4 84 1
11 3 29 3 40 1 16 3 17 10 6 7 -10 9 -7 8 12 -1 15 -3 27 -3 27 -1 0 -9 -11
-18 -25z"/>
<path d="M4774 5117 c3 -10 6 -24 6 -30 0 -8 4 -7 12 1 10 10 8 16 -6 30 -18
16 -19 16 -12 -1z"/>
<path d="M4792 5063 c-6 -11 -6 -26 -1 -38 9 -19 9 -19 6 1 -3 12 0 29 5 38 5
9 7 16 4 16 -3 0 -9 -8 -14 -17z"/>
<path d="M4812 5013 c1 -41 10 -54 23 -34 3 5 1 12 -5 16 -6 4 -8 11 -5 16 4
5 1 17 -4 26 -8 14 -10 9 -9 -24z"/>
<path d="M2913 4955 c0 -27 2 -38 4 -22 2 15 2 37 0 50 -2 12 -4 0 -4 -28z"/>
<path d="M4775 4990 c3 -5 8 -10 11 -10 2 0 4 5 4 10 0 6 -5 10 -11 10 -5 0
-7 -4 -4 -10z"/>
<path d="M4790 4960 c0 -5 5 -10 11 -10 5 0 7 5 4 10 -3 6 -8 10 -11 10 -2 0
-4 -4 -4 -10z"/>
<path d="M4815 4933 c-4 -13 -12 -20 -17 -17 -5 3 -8 -2 -7 -12 2 -11 0 -25
-4 -31 -5 -8 -3 -13 3 -13 14 0 43 67 36 83 -2 7 -8 2 -11 -10z"/>
<path d="M2903 4893 c-16 -6 11 -63 30 -63 8 0 8 3 -2 9 -7 5 -10 14 -7 20 4
6 2 11 -4 11 -7 0 -10 7 -6 15 3 8 4 15 3 14 -1 0 -8 -3 -14 -6z"/>
<path d="M2959 4797 c26 -28 31 -32 31 -19 0 4 -13 16 -28 26 l-27 19 24 -26z"/>
<path d="M4716 4793 c-6 -14 -5 -15 5 -6 7 7 10 15 7 18 -3 3 -9 -2 -12 -12z"/>
<path d="M4734 4778 l-19 -23 23 19 c21 18 27 26 19 26 -2 0 -12 -10 -23 -22z"/>
<path d="M3478 4453 c7 -3 16 -2 19 1 4 3 -2 6 -13 5 -11 0 -14 -3 -6 -6z"/>
<path d="M3510 4447 c3 -2 68 -22 145 -42 77 -21 173 -46 213 -57 l73 -20 127
58 c133 60 153 71 112 61 -14 -4 -94 -12 -178 -18 -147 -12 -312 -5 -457 18
-22 3 -38 3 -35 0z"/>
<path d="M7820 3650 c0 -3643 0 -3650 20 -3650 20 0 20 7 20 3650 0 3643 0
3650 -20 3650 -20 0 -20 -7 -20 -3650z"/>
</g>
</svg>
