<?xml version="1.0" standalone="no"?>
<!DOCTYPE svg PUBLIC "-//W3C//DTD SVG 20010904//EN"
 "http://www.w3.org/TR/2001/REC-SVG-20010904/DTD/svg10.dtd">
<svg version="1.0" xmlns="http://www.w3.org/2000/svg"
 width="1302.000000pt" height="502.000000pt" viewBox="0 0 1302.000000 502.000000"
 preserveAspectRatio="xMidYMid meet">

<g transform="translate(0.000000,502.000000) scale(0.100000,-0.100000)"
fill="#000000" stroke="none">
<path d="M0 2510 l0 -2510 6510 0 6510 0 0 2510 0 2510 -6510 0 -6510 0 0
-2510z m8370 1423 c38 -26 49 -45 50 -81 0 -18 5 -42 11 -53 9 -17 6 -21 -19
-30 -16 -5 -38 -22 -50 -38 -18 -24 -19 -34 -10 -74 5 -25 16 -51 24 -58 12
-10 13 -9 8 5 -7 18 20 23 32 5 3 -6 17 -8 29 -5 28 7 40 -7 21 -23 -10 -8
-16 -9 -21 -1 -11 17 -43 12 -41 -7 0 -10 -6 -18 -14 -18 -8 0 -20 -4 -26 -8
-7 -4 -33 -4 -59 0 -39 5 -46 9 -42 24 7 24 -8 24 -40 -1 -19 -15 -30 -17 -44
-9 -27 14 -24 46 5 53 13 3 31 9 40 12 12 5 15 2 10 -10 -8 -21 -2 -20 39 4
52 31 56 75 10 118 -19 17 -42 32 -52 32 -16 0 -18 7 -14 48 7 79 12 92 46
112 39 24 75 25 107 3z m2174 -137 c39 -47 42 -57 25 -84 -9 -15 -6 -28 15
-66 14 -26 26 -62 26 -82 0 -19 7 -51 15 -71 22 -51 21 -124 0 -156 -23 -35
-73 -36 -137 -2 -55 29 -59 30 -52 10 4 -8 12 -15 18 -15 21 0 66 -54 57 -68
-9 -16 -104 -42 -146 -41 l-30 1 32 14 c39 17 64 54 36 54 -10 -1 -35 -7 -57
-15 -29 -10 -45 -11 -65 -3 -14 6 -31 10 -38 9 -21 -3 -24 18 -6 36 10 10 30
45 45 78 20 46 30 59 44 57 11 -2 26 -3 34 -4 8 -1 26 -9 39 -20 25 -19 86
-25 96 -8 4 6 -7 10 -26 10 -26 0 -30 2 -19 15 6 8 30 18 53 22 38 8 39 9 23
26 -11 10 -33 17 -57 17 -67 0 -41 22 38 32 10 1 10 5 1 16 -22 26 -142 -9
-177 -52 -17 -20 -49 -20 -111 0 l-49 16 5 92 c6 95 10 104 68 171 38 43 65
50 208 54 55 1 57 0 92 -43z m-734 15 c0 -4 14 -24 30 -42 17 -19 33 -45 37
-59 3 -14 13 -38 21 -55 16 -31 19 -85 8 -129 -6 -25 -8 -25 -68 -19 -50 5
-60 4 -56 -8 3 -9 16 -13 34 -11 16 1 38 -4 49 -12 20 -15 19 -16 -10 -41
l-30 -25 37 6 c35 6 38 4 57 -35 12 -22 21 -49 21 -59 0 -19 -34 -62 -50 -62
-4 0 -15 -3 -24 -6 -21 -8 -21 19 -1 36 26 21 6 29 -32 13 -32 -13 -38 -13
-47 0 -6 7 -14 14 -19 15 -27 2 -31 10 -15 27 13 14 14 22 5 36 -9 15 -7 24
12 49 29 41 22 48 -17 15 -50 -42 -60 -33 -81 70 -18 89 -20 93 -42 100 -28 9
-41 40 -44 104 -2 55 -2 57 34 78 29 19 51 23 114 23 42 0 77 -4 77 -9z
m-1597 -98 c-7 -2 -21 -2 -30 0 -10 3 -4 5 12 5 17 0 24 -2 18 -5z m1788 -30
c-8 -15 -10 -15 -11 -2 0 17 10 32 18 25 2 -3 -1 -13 -7 -23z m-2165 -23 c58
-25 71 -42 80 -100 4 -25 13 -54 20 -64 12 -18 8 -21 -54 -42 -37 -13 -74 -33
-83 -45 l-16 -22 -35 21 c-20 12 -46 22 -59 22 -39 0 -44 11 -44 100 0 95 7
112 50 134 41 21 84 20 141 -4z m2213 11 c12 -8 13 -18 5 -47 -5 -21 -15 -40
-23 -42 -10 -3 -12 1 -8 17 4 16 1 21 -11 19 -12 -2 -18 5 -20 22 -3 19 -1 22
8 13 18 -17 44 -5 29 13 -13 16 -1 18 20 5z m-1805 -7 c18 -7 12 -24 -10 -24
-8 0 -14 7 -14 15 0 17 2 18 24 9z m191 -4 c3 -5 -3 -10 -15 -10 -12 0 -18 5
-15 10 3 6 10 10 15 10 5 0 12 -4 15 -10z m615 1 c0 -5 14 -12 31 -16 17 -4
33 -14 35 -23 13 -44 48 -102 65 -107 11 -4 19 -14 19 -24 0 -14 -11 -20 -47
-25 -48 -6 -112 -39 -96 -49 4 -3 30 0 56 6 35 8 53 7 72 -1 34 -16 24 -30
-20 -30 -51 0 -135 -13 -135 -21 0 -4 5 -12 12 -19 14 -14 62 -16 53 -2 -3 6
-2 10 4 10 5 0 11 -5 13 -10 2 -7 25 -7 73 -1 78 11 89 5 80 -44 -9 -46 -39
-99 -68 -115 -23 -13 -30 -13 -61 2 l-35 17 11 -25 c13 -29 0 -44 -39 -44 -27
0 -30 -15 -5 -26 28 -13 82 -10 82 4 0 6 5 12 10 12 16 0 24 -30 11 -43 -6 -6
-11 -26 -11 -44 0 -26 -11 -44 -49 -84 -48 -49 -52 -51 -91 -46 -22 3 -53 13
-68 23 -15 10 -31 19 -37 19 -5 0 -16 18 -23 39 -7 22 -26 52 -42 68 -31 29
-34 36 -24 62 8 21 21 20 28 -2 6 -17 65 -47 75 -37 2 3 -1 5 -7 5 -7 0 -12 7
-12 15 0 8 3 14 8 14 4 -1 15 -1 25 0 31 2 10 18 -32 25 -44 7 -54 15 -42 35
7 10 12 10 28 1 27 -17 147 -4 165 17 12 15 7 16 -42 10 -30 -3 -74 -2 -97 2
-38 7 -46 5 -75 -20 -41 -35 -49 -35 -77 -5 -24 25 -53 119 -44 142 6 17 19
18 29 3 8 -14 107 -6 112 9 2 8 11 8 28 0 20 -9 28 -9 39 3 13 13 10 20 -24
57 -23 24 -51 45 -69 48 l-30 6 20 62 c24 73 59 114 96 114 15 0 33 8 42 20
15 22 80 32 80 13z m1726 -34 c-42 -27 -56 -44 -62 -74 -6 -30 -5 -31 30 -30
41 1 47 17 14 40 -22 14 -22 16 -4 23 13 5 23 1 33 -12 8 -10 19 -18 24 -16
12 3 11 -50 -2 -85 -14 -37 -48 -73 -70 -73 -13 0 -22 15 -33 54 -9 30 -16 65
-16 78 0 35 57 108 83 107 21 0 21 -1 3 -12z m-2536 -107 c0 -5 -4 -10 -10
-10 -5 0 -10 5 -10 10 0 6 5 10 10 10 6 0 10 -4 10 -10z m132 -25 c4 -5 2 -15
-4 -22 -7 -9 -5 -15 8 -20 11 -4 24 -14 30 -22 10 -13 14 -13 30 -1 14 11 13
7 -4 -17 -42 -60 -132 -65 -189 -11 -22 20 -23 21 -23 2 0 -16 -2 -17 -10 -4
-15 23 -12 30 15 30 14 0 25 4 25 9 0 5 14 13 32 16 27 6 29 9 17 19 -9 6 -14
16 -12 23 5 14 75 12 85 -2z m2111 -2 c-7 -2 -21 -2 -30 0 -10 3 -4 5 12 5 17
0 24 -2 18 -5z m-43 -33 c0 -5 -4 -10 -10 -10 -5 0 -10 5 -10 10 0 6 5 10 10
10 6 0 10 -4 10 -10z m-2487 -47 c-7 -2 -19 -2 -25 0 -7 3 -2 5 12 5 14 0 19
-2 13 -5z m946 -19 c2 -2 2 -6 0 -8 -7 -7 -114 -10 -116 -3 -7 17 -2 26 15 29
17 4 93 -9 101 -18z m-1094 -51 c4 -21 13 -50 22 -66 19 -38 36 -23 23 22 -9
32 -8 33 17 26 79 -19 84 -19 108 10 l22 29 2 -72 c1 -61 -1 -74 -19 -89 -11
-10 -20 -23 -20 -31 0 -7 -8 -12 -17 -10 -10 1 -24 -1 -31 -6 -25 -15 -35 9
-21 48 10 29 11 38 0 48 -10 11 -11 10 -6 -2 3 -10 -10 -24 -41 -43 -46 -28
-47 -28 -88 -11 -22 9 -46 18 -52 21 -6 2 -14 -5 -17 -16 -7 -27 -46 -28 -73
-2 -15 14 -19 27 -16 55 4 34 7 37 28 32 28 -7 73 12 55 23 -6 4 -9 15 -5 25
11 30 34 -2 34 -49 0 -34 4 -44 19 -48 28 -7 31 -1 31 59 0 29 3 59 6 68 11
28 32 17 39 -21z m345 -62 c14 -18 44 -54 68 -80 23 -27 42 -53 42 -58 0 -6 9
-13 20 -16 13 -3 18 -11 14 -21 -4 -10 1 -17 18 -20 79 -16 79 -16 76 -39 -4
-28 -30 -33 -70 -13 -39 20 -44 20 -52 0 -3 -9 3 -27 14 -41 11 -14 20 -32 20
-39 0 -8 4 -14 8 -14 15 0 6 -97 -11 -124 -9 -14 -22 -48 -28 -75 l-10 -50
-34 22 c-24 16 -31 25 -23 34 7 9 3 11 -18 10 -26 -2 -30 2 -41 48 -25 98 -51
305 -38 305 6 0 45 -71 45 -84 0 -8 7 -19 15 -26 8 -7 20 -31 25 -54 18 -71
29 -91 43 -77 9 10 8 15 -6 26 -10 7 -19 28 -21 46 -3 36 -8 52 -32 107 -8 18
-14 39 -14 47 0 8 -4 15 -8 15 -14 0 -55 96 -54 127 0 15 4 43 7 61 6 26 4 32
-9 32 -19 0 -21 16 -3 35 10 11 14 8 22 -19 6 -18 21 -47 35 -65z m-214 80
c11 9 15 9 10 2 -4 -7 -2 -13 3 -13 6 0 11 -5 11 -10 0 -11 -87 -7 -98 5 -13
12 21 23 39 12 13 -8 22 -7 35 4z m2287 -14 c-12 -12 -24 -32 -28 -44 -4 -16
-14 -23 -30 -23 -29 0 -43 22 -37 59 4 26 7 28 59 29 l56 1 -20 -22z m-1696
-241 c-37 -74 -64 -162 -53 -173 3 -4 6 1 6 11 0 23 39 99 57 109 7 5 11 12 8
17 -3 4 -1 19 5 32 l10 23 -2 -25 c-1 -14 1 -30 4 -35 7 -11 -7 -142 -22 -210
-5 -22 -8 -40 -7 -41 6 -7 192 108 200 123 19 37 52 83 60 83 4 0 5 -11 1 -25
-5 -20 -3 -24 10 -19 13 5 16 -2 16 -43 0 -65 39 -123 100 -149 19 -8 42 -24
52 -34 11 -11 30 -20 43 -20 13 0 28 -8 34 -17 9 -16 18 -14 103 30 l93 49 17
-22 c15 -18 18 -42 18 -125 0 -57 4 -115 10 -129 5 -15 21 -84 36 -154 26
-125 39 -211 28 -182 -14 38 -17 46 -20 60 -1 8 -7 44 -14 79 -6 35 -15 72
-20 81 -5 10 -7 19 -5 22 2 2 -2 24 -10 48 -7 25 -14 38 -15 30 -1 -8 -3 -24
-6 -35 -2 -11 -5 -43 -7 -71 -1 -29 -5 -48 -8 -43 -5 9 -39 -52 -39 -72 0 -5
-11 -26 -24 -47 -20 -32 -22 -44 -15 -92 10 -70 11 -115 3 -107 -4 4 -9 28
-11 54 -6 76 -10 81 -38 48 -13 -17 -24 -34 -25 -39 0 -11 -51 -51 -65 -51 -6
0 -9 27 -7 70 4 100 -6 106 -53 29 -40 -65 -56 -74 -87 -50 -17 12 -15 18 21
87 22 41 53 91 70 111 24 28 31 46 31 77 0 23 -3 41 -7 41 -10 -1 -76 -84
-133 -168 -25 -36 -50 -67 -56 -69 -15 -5 -44 68 -51 129 -3 26 -10 45 -14 42
-12 -7 -11 9 0 39 5 13 12 51 16 83 3 33 10 86 15 118 5 33 8 61 6 63 -1 2
-13 -36 -26 -84 -12 -49 -26 -95 -31 -103 -17 -30 -10 13 16 95 14 44 25 88
25 98 0 9 3 17 8 17 15 0 29 92 20 138 -4 25 -10 48 -13 50 -5 5 -35 -9 -95
-43 -14 -8 -21 -15 -17 -15 4 0 3 -10 -4 -21 -10 -20 -9 -21 17 -17 16 3 37 9
47 13 11 4 17 3 17 -5 0 -13 -42 -126 -67 -180 -9 -19 -16 -41 -14 -47 1 -7
-3 -13 -8 -13 -6 0 -26 -29 -46 -65 -20 -36 -40 -63 -44 -61 -4 3 -5 -10 -3
-29 2 -18 -1 -36 -7 -39 -6 -4 -11 -2 -11 5 0 6 -8 1 -19 -12 -42 -53 -80
-130 -86 -173 -4 -25 -12 -46 -19 -46 -6 0 -3 -5 6 -11 10 -6 28 -46 44 -97
14 -48 30 -95 35 -105 6 -11 8 -21 5 -24 -2 -3 2 -25 9 -51 15 -49 13 -62 -12
-62 -12 0 -13 3 -4 14 9 10 9 16 1 21 -7 4 -13 -1 -16 -12 -4 -15 -12 -18 -39
-15 -19 2 -56 -1 -83 -8 -41 -9 -56 -9 -86 4 -20 8 -36 17 -36 20 0 4 126 77
182 106 16 7 27 15 25 16 -2 2 -89 -14 -193 -35 -104 -21 -225 -45 -269 -54
-61 -11 -99 -26 -160 -62 -44 -26 -81 -51 -83 -56 -2 -5 -9 -9 -16 -9 -7 0
-19 -12 -26 -26 -11 -19 -19 -24 -36 -20 -29 8 -36 -18 -16 -58 13 -27 13 -31
-4 -43 -27 -19 -30 -18 -59 40 -15 28 -33 59 -40 67 -7 8 -15 32 -18 53 -5 33
-3 37 16 37 19 0 260 140 367 213 39 27 171 62 268 73 40 4 66 12 69 21 3 7 6
50 8 96 3 146 15 264 34 358 16 79 17 94 5 106 -19 20 -18 59 2 67 9 4 14 9
11 12 -3 4 16 42 43 85 41 67 48 84 43 114 -4 27 -2 36 11 41 14 5 16 15 10
53 -4 25 -15 64 -24 86 -17 40 -17 41 7 70 48 59 107 157 118 198 2 4 4 10 5
15 1 4 9 -33 17 -82 l15 -89 -35 -71z m2301 235 c16 -10 42 -93 42 -135 0 -47
-30 -180 -42 -187 -6 -4 -8 -11 -4 -17 3 -6 3 -36 0 -67 -7 -57 -14 -70 -102
-190 -31 -41 -31 -44 -10 -36 13 4 24 17 26 28 2 11 16 33 32 48 l30 28 -19
-64 c-10 -35 -21 -95 -25 -134 -4 -38 -11 -82 -17 -96 -5 -14 -13 -70 -17
-124 -7 -95 -8 -99 -32 -105 l-24 -6 22 -15 c21 -15 22 -19 18 -190 -2 -96 -5
-204 -7 -241 -2 -37 0 -70 3 -74 4 -3 80 4 171 15 220 28 235 28 248 -6 21
-56 22 -55 -251 -82 -315 -32 -775 -82 -778 -86 -2 -2 9 -25 24 -51 19 -32 28
-63 30 -101 2 -30 8 -60 13 -67 11 -13 5 -26 -10 -26 -13 0 -44 67 -68 143
-18 61 -19 72 -7 95 8 15 12 39 9 53 -5 29 -25 24 262 65 111 15 168 32 159
46 -6 10 25 58 38 58 6 0 8 -9 5 -21 -4 -16 -3 -18 9 -8 8 7 12 20 8 34 -6 25
16 74 53 119 21 26 24 36 18 75 -4 25 -9 49 -12 54 -2 4 -23 -16 -46 -45 l-42
-53 -6 50 c-6 47 -4 54 37 118 37 56 45 76 47 121 1 30 -1 58 -5 61 -4 4 -19
-7 -33 -24 -15 -17 -30 -31 -35 -31 -4 0 -10 19 -13 43 -5 49 19 114 55 150
l24 24 -29 69 c-52 125 -67 173 -67 214 0 52 -16 52 -115 0 -89 -47 -113 -52
-91 -17 8 12 25 59 37 105 16 60 25 79 31 68 7 -13 12 -13 28 -4 10 7 23 8 27
4 4 -5 2 -11 -4 -13 -7 -3 -13 -11 -13 -19 0 -8 -4 -14 -10 -14 -5 0 -10 -10
-10 -22 1 -20 2 -21 10 -6 9 15 13 15 37 -8 27 -25 53 -32 53 -13 0 6 8 8 19
4 12 -4 23 2 33 17 9 13 52 67 97 121 76 93 95 127 70 127 -7 0 -9 13 -5 38
13 67 27 112 36 112 9 0 26 -47 33 -90 3 -24 4 -23 20 12 21 46 22 94 2 132
-8 15 -15 32 -15 37 0 11 31 11 48 0z m-2434 -10 c3 -5 -2 -19 -12 -31 -16
-19 -24 -21 -60 -15 -45 7 -57 17 -48 40 6 17 111 22 120 6z m-294 -26 c0 -8
-4 -15 -10 -15 -5 0 -7 7 -4 15 4 8 8 15 10 15 2 0 4 -7 4 -15z m2456 -102
c-3 -16 -9 -53 -12 -83 -7 -63 -26 -88 -93 -126 -43 -24 -46 -24 -58 -8 -23
31 -15 51 26 68 30 11 39 21 38 36 -1 14 -6 19 -17 15 -8 -4 -35 -9 -60 -12
-39 -4 -49 -1 -72 20 -48 45 -38 63 43 82 39 8 93 17 120 19 28 2 53 6 56 10
4 3 13 6 21 6 10 0 13 -7 8 -27z m-361 -30 c82 -98 78 -87 64 -148 -7 -33 -18
-55 -25 -55 -8 0 -25 19 -40 43 -14 23 -34 54 -45 69 -20 29 -26 98 -8 98 6 0
8 9 4 20 -10 33 8 23 50 -27z m-75 -37 c0 -32 -2 -34 -62 -53 -87 -27 -119
-18 -48 14 29 13 63 34 76 48 30 33 34 32 34 -9z m-2260 8 c0 -4 -8 -13 -17
-20 -16 -12 -14 -13 15 -8 21 4 32 3 32 -5 0 -6 11 -11 24 -11 36 0 41 -29 11
-59 l-26 -26 6 38 7 37 -35 -35 c-45 -45 -83 -47 -131 -4 -20 17 -40 28 -45
25 -5 -4 -12 -2 -15 3 -4 5 18 13 49 16 54 7 67 16 43 32 -9 5 -3 10 17 14 42
9 65 10 65 3z m-280 -58 c0 -12 18 -47 39 -77 22 -30 67 -93 101 -141 33 -48
69 -93 78 -100 10 -7 22 -19 27 -27 6 -11 3 -13 -13 -9 -34 9 -34 -6 -2 -26
37 -21 56 -54 41 -69 -10 -10 -94 27 -132 60 -13 11 -18 10 -33 -5 -15 -17
-15 -20 -1 -32 18 -15 19 -41 3 -60 -11 -12 -10 -12 2 -4 25 17 63 14 90 -6
24 -19 24 -20 3 -20 -39 0 -80 -46 -92 -102 -6 -28 -10 -52 -8 -54 1 -2 37 29
80 69 54 51 78 81 83 104 8 43 39 71 62 57 13 -9 17 -28 19 -88 1 -48 -2 -76
-9 -76 -6 0 -8 -9 -5 -19 2 -11 0 -41 -5 -68 -5 -26 -11 -61 -13 -77 -3 -16
-9 -34 -15 -40 -5 -5 -10 -17 -10 -26 0 -8 -9 -32 -20 -53 -11 -20 -37 -78
-57 -129 -20 -51 -38 -87 -40 -81 -3 7 1 22 7 33 21 39 2 33 -58 -19 -32 -28
-62 -51 -66 -51 -4 0 -4 17 0 38 6 29 24 53 92 117 72 68 85 86 92 123 4 23 6
42 5 42 -1 0 -36 -34 -78 -75 -42 -41 -81 -75 -87 -75 -5 0 -10 16 -10 35 0
31 10 45 80 115 82 81 116 136 105 171 -6 18 -8 18 -27 -8 -25 -33 -129 -133
-139 -133 -12 0 -18 184 -5 192 7 5 6 8 -4 8 -23 0 -42 64 -47 155 -3 87 -9
115 -24 115 -5 0 -9 12 -9 27 0 14 -12 50 -26 78 -37 76 -42 150 -15 203 23
44 41 48 41 8z m1714 -9 c-6 -19 -5 -20 9 -9 21 17 52 8 99 -29 29 -23 54 -31
110 -39 159 -20 254 -53 303 -106 27 -29 35 -30 28 -5 -3 10 1 29 7 41 7 14 8
20 2 16 -13 -8 -27 57 -17 74 10 17 24 2 18 -20 -4 -16 -2 -19 11 -14 10 4 25
-1 36 -11 26 -23 26 -39 0 -32 -27 7 -14 -12 16 -23 19 -8 24 -17 24 -44 0
-22 -6 -38 -16 -44 -15 -8 -15 -12 1 -46 17 -36 35 -55 35 -38 0 5 22 37 49
71 41 51 49 68 46 94 -3 21 2 38 14 52 10 11 22 30 25 42 4 11 13 24 22 27 11
4 13 0 8 -22 -11 -48 -47 -147 -59 -162 -7 -8 -22 -35 -34 -60 -12 -25 -29
-57 -38 -71 -16 -25 -15 -29 11 -85 15 -33 34 -69 42 -82 l15 -23 24 25 23 25
-29 93 c-30 94 -30 122 -2 132 43 17 102 -72 103 -153 0 -24 8 -68 18 -98 13
-42 22 -55 42 -60 36 -8 60 -32 60 -60 0 -30 -36 -45 -99 -39 -25 2 -37 1 -26
-1 86 -20 130 -35 136 -45 17 -27 -18 -67 -60 -69 -24 -1 -24 -2 4 -8 23 -5
30 -12 30 -31 0 -36 -37 -52 -104 -44 -39 5 -52 4 -47 -5 4 -6 28 -11 54 -11
61 0 81 -12 62 -35 -11 -13 -26 -16 -74 -12 -34 3 -79 9 -101 14 -39 8 -40 10
-39 48 1 25 -3 43 -12 48 -22 13 -17 55 8 68 l23 12 -23 10 c-12 6 -22 19 -22
31 0 16 -3 17 -12 8 -9 -9 -14 -54 -15 -142 -1 -71 -4 -134 -8 -140 -3 -5 -1
-10 4 -10 6 0 11 -14 11 -31 0 -18 13 -50 30 -76 17 -24 30 -50 30 -57 0 -16
-30 -26 -78 -26 -18 0 -48 -7 -67 -14 -19 -8 -35 -11 -35 -5 0 22 -22 6 -36
-26 -8 -19 -19 -35 -24 -35 -12 0 -13 47 -1 54 11 7 -1 63 -20 93 -12 20 -11
24 6 36 18 14 18 15 -4 22 -21 6 -23 12 -18 48 4 27 2 36 -4 26 -5 -7 -9 -27
-9 -43 0 -27 -14 -29 -15 -3 -1 7 -5 25 -9 41 -7 22 -5 31 8 38 9 5 14 14 11
19 -4 5 -11 7 -16 4 -5 -4 -9 22 -9 60 0 57 -3 68 -19 72 -10 2 -28 21 -39 42
-12 20 -35 54 -51 75 -17 21 -29 42 -26 46 3 4 -1 10 -9 13 -21 8 -101 116
-126 170 -13 26 -24 46 -26 44 -2 -1 6 -38 17 -82 10 -43 17 -80 14 -83 -6 -6
-9 4 -35 103 -28 106 -28 106 -30 135 -1 23 -2 24 -14 8 -20 -27 -40 -22 -87
25 -24 23 -58 54 -77 69 l-33 27 -45 -35 c-40 -30 -64 -41 -64 -30 0 2 17 15
39 29 56 37 161 195 161 242 0 23 4 34 10 30 6 -4 8 -16 4 -28z m546 17 c0
-14 -73 -105 -92 -115 -11 -6 -27 -8 -35 -5 -14 6 -14 8 1 24 9 10 16 24 16
31 0 8 6 11 16 7 12 -4 14 -1 9 14 -4 14 -2 20 8 20 8 0 17 7 21 15 5 14 56
22 56 9z m109 -45 c24 -5 47 -6 53 -3 19 12 58 -6 58 -27 0 -29 -28 -35 -60
-11 -15 12 -50 25 -76 29 -26 5 -49 14 -52 22 -3 10 0 12 14 6 11 -4 39 -11
63 -16z m-8288 -85 c33 -16 34 -21 14 -48 -13 -17 -16 -17 -58 -1 -35 13 -49
14 -66 6 -43 -24 -22 -53 51 -71 97 -25 129 -100 69 -161 -26 -26 -36 -29 -93
-29 -94 0 -156 44 -113 80 13 10 23 10 55 -5 45 -20 86 -23 103 -6 20 20 -4
42 -73 67 -36 13 -70 31 -77 40 -18 24 -16 85 2 112 30 42 121 50 186 16z
m1580 0 c33 -16 34 -21 14 -48 -13 -17 -18 -18 -40 -8 -66 30 -138 3 -156 -58
-21 -71 20 -130 92 -130 60 0 69 7 69 56 0 42 1 44 30 44 30 0 30 0 30 -59 0
-52 -3 -62 -26 -80 -22 -17 -41 -21 -100 -21 -71 0 -76 2 -114 36 -72 65 -77
166 -11 237 54 57 138 70 212 31z m-1257 -134 c36 -83 66 -155 66 -160 0 -6
-15 -10 -34 -10 -30 0 -36 4 -46 35 l-12 35 -73 0 -74 0 -12 -35 c-12 -32 -17
-35 -51 -35 l-37 0 33 78 c19 42 46 104 61 137 15 33 31 70 36 83 6 17 17 22
43 22 l34 0 66 -150z m166 -10 l0 -160 -30 0 -30 0 0 160 0 160 30 0 30 0 0
-160z m150 30 l0 -130 70 0 70 0 0 -30 0 -30 -105 0 -105 0 0 160 0 160 35 0
35 0 0 -130z m250 -30 l0 -160 -30 0 -30 0 0 160 0 160 30 0 30 0 0 -160z
m222 54 l83 -107 3 107 3 106 29 0 30 0 0 -160 0 -160 -34 0 c-31 0 -40 8
-112 103 l-79 102 -3 -102 -3 -103 -29 0 -30 0 0 160 0 160 29 0 c26 0 41 -14
113 -106z m5114 94 c4 -7 4 -10 -1 -6 -4 4 -13 4 -19 -1 -16 -12 -76 -22 -76
-12 0 4 19 13 43 18 23 6 43 11 44 12 1 0 5 -5 9 -11z m99 -188 c3 -52 8 -105
10 -117 8 -36 -11 -27 -78 36 -35 32 -70 60 -78 63 -11 4 -9 11 10 32 14 14
31 26 38 26 7 0 18 10 23 23 5 12 18 36 29 52 12 17 21 41 22 55 3 40 17 -67
24 -170z m435 181 c0 -6 -4 -13 -10 -16 -5 -3 -10 1 -10 9 0 9 5 16 10 16 6 0
10 -4 10 -9z m-59 -11 c22 -12 25 -33 5 -49 -14 -12 -27 4 -31 42 -2 20 0 20
26 7z m1632 -7 c7 -12 -11 -53 -23 -53 -5 0 -10 14 -10 30 0 28 21 42 33 23z
m-763 -132 c0 -18 -58 -51 -91 -51 -18 0 -41 -7 -51 -17 -10 -9 -21 -13 -26
-9 -12 13 68 78 89 73 10 -3 22 -1 25 4 7 12 54 12 54 0z m-5722 -92 c15 -1
15 -2 0 -6 -14 -3 -18 -15 -18 -49 0 -24 5 -44 10 -44 6 0 10 9 10 21 0 11 9
34 21 50 23 33 58 38 83 13 19 -18 21 -65 4 -82 -20 -20 -65 -14 -82 10 l-16
22 0 -22 c0 -20 -5 -23 -27 -20 -26 3 -28 7 -33 56 -4 37 -2 56 7 64 7 6 14
18 14 27 1 9 4 4 6 -11 3 -17 11 -28 21 -29z m6996 -52 c-3 -11 -2 -22 2 -26
14 -10 34 -49 34 -66 0 -25 -30 -77 -42 -73 -6 2 -17 21 -25 43 -11 33 -11 42
2 61 19 30 19 31 -5 37 -14 4 -20 14 -20 34 0 40 8 45 36 26 18 -11 23 -21 18
-36z m-1140 28 c3 -8 1 -15 -4 -15 -6 0 -10 7 -10 15 0 8 2 15 4 15 2 0 6 -7
10 -15z m16 -71 c0 -8 -4 -12 -10 -9 -5 3 -10 10 -10 16 0 5 5 9 10 9 6 0 10
-7 10 -16z m1053 -41 c9 -46 5 -63 -14 -63 -23 0 -34 17 -20 34 6 7 8 16 5 19
-9 8 3 37 15 37 5 0 12 -12 14 -27z m-1014 -103 c0 -9 -4 -8 -9 5 -5 11 -9 27
-9 35 0 9 4 8 9 -5 5 -11 9 -27 9 -35z m70 -43 c1 -5 -3 -5 -9 -2 -5 3 -10 16
-9 28 0 21 1 21 9 2 5 -11 9 -24 9 -28z m949 19 c2 -11 1 -58 -3 -105 -6 -69
-9 -81 -17 -61 -5 13 -11 51 -13 85 -3 33 -8 71 -11 83 -6 21 -4 23 17 20 14
-2 25 -11 27 -22z m-981 -166 c-2 -16 -6 -7 -11 25 -4 28 -13 69 -20 92 -7 24
-10 45 -7 49 9 8 42 -136 38 -166z m-2059 68 c14 -14 16 -112 2 -137 -5 -10
-27 -26 -49 -34 -36 -15 -40 -21 -51 -69 -10 -50 -10 -54 12 -71 96 -77 118
-113 86 -145 -20 -20 -39 -14 -94 34 -30 25 -54 40 -54 32 0 -7 19 -24 41 -38
49 -30 76 -74 58 -96 -16 -19 -32 -18 -82 6 l-41 20 34 -35 c28 -29 31 -37 20
-50 -17 -20 -37 -19 -49 4 -17 31 -102 82 -125 75 -12 -4 -23 -8 -25 -10 -8
-8 33 -44 49 -44 22 0 70 -37 70 -55 0 -7 -7 -18 -15 -25 -21 -17 -64 2 -142
63 -51 39 -63 54 -63 77 0 53 -8 60 -65 60 -71 0 -83 15 -57 73 13 30 34 53
68 76 44 29 54 32 100 26 53 -6 124 13 124 34 0 10 96 76 127 88 9 4 13 -5 13
-33 0 -48 12 -37 16 15 1 22 7 48 12 58 5 10 12 33 16 52 10 55 37 76 64 49z
m1312 3 c0 -6 -4 -13 -10 -16 -5 -3 -10 1 -10 9 0 9 5 16 10 16 6 0 10 -4 10
-9z m-93 -23 c-3 -8 -6 -5 -6 6 -1 11 2 17 5 13 3 -3 4 -12 1 -19z m-5013 -11
c11 -8 15 -19 10 -30 -7 -20 -13 -21 -50 -7 -34 13 -64 4 -64 -19 0 -14 12
-22 45 -30 81 -20 110 -79 63 -128 -26 -28 -102 -32 -148 -8 -34 17 -37 27
-15 45 12 10 22 9 51 -5 28 -13 42 -15 60 -6 34 15 20 39 -31 52 -81 20 -109
77 -63 126 17 18 32 23 73 23 28 0 59 -6 69 -13z m116 -72 c0 -72 3 -88 20
-105 24 -24 39 -25 66 -6 15 12 20 30 24 103 5 82 7 88 28 91 22 3 22 1 22
-96 0 -94 -1 -101 -26 -126 -22 -21 -36 -26 -76 -26 -41 0 -54 5 -79 29 -28
28 -29 33 -29 125 0 96 0 96 25 96 25 0 25 -1 25 -85z m410 70 c34 -17 37 -27
15 -45 -12 -10 -22 -9 -49 4 -40 19 -75 10 -100 -26 -30 -42 -10 -99 41 -119
18 -7 34 -5 60 7 31 15 36 15 49 2 14 -14 13 -18 -12 -37 -20 -16 -41 -21 -81
-21 -49 0 -59 4 -89 34 -30 30 -34 40 -34 85 0 58 19 94 59 116 35 19 105 19
141 0z m264 -6 c25 -20 26 -23 12 -37 -12 -13 -20 -13 -38 -4 -65 32 -128 4
-128 -59 0 -42 14 -64 49 -78 24 -11 34 -10 61 4 35 18 60 14 60 -9 0 -26 -42
-46 -96 -46 -42 0 -59 5 -83 26 -63 53 -63 146 0 199 41 34 123 36 163 4z
m244 -6 c3 -22 0 -23 -62 -23 -64 0 -66 -1 -66 -25 0 -24 3 -25 55 -25 52 0
55 -1 55 -25 0 -24 -3 -25 -55 -25 -54 0 -55 0 -55 -30 l0 -30 65 0 c58 0 65
-2 65 -20 0 -19 -7 -20 -90 -20 l-90 0 0 125 0 126 88 -3 c82 -3 87 -4 90 -25z
m197 15 c29 -13 31 -21 10 -38 -11 -9 -22 -9 -48 -1 -19 7 -42 9 -51 5 -30
-12 -13 -38 35 -54 64 -21 79 -36 79 -81 0 -48 -27 -69 -88 -69 -43 0 -102 23
-102 39 0 24 28 31 64 16 21 -9 46 -13 57 -10 34 11 17 38 -34 56 -66 24 -77
35 -77 80 0 28 6 42 22 53 26 19 96 21 133 4z m220 0 c29 -13 31 -21 10 -38
-11 -9 -22 -9 -48 -1 -19 7 -42 9 -51 5 -30 -12 -13 -38 35 -54 64 -21 79 -36
79 -81 0 -48 -27 -69 -88 -69 -43 0 -102 23 -102 39 0 24 28 31 64 16 21 -9
46 -13 57 -10 34 11 17 38 -34 56 -66 24 -77 35 -77 80 0 28 6 42 22 53 26 19
96 21 133 4z m4225 -70 c6 -40 14 -82 17 -93 4 -14 2 -17 -5 -10 -15 14 -41
175 -28 175 2 0 9 -33 16 -72z m235 62 c3 -5 1 -10 -4 -10 -6 0 -11 5 -11 10
0 6 2 10 4 10 3 0 8 -4 11 -10z m-780 -30 c-4 -12 -9 -19 -12 -17 -3 3 -2 15
2 27 4 12 9 19 12 17 3 -3 2 -15 -2 -27z m-138 -12 c-3 -8 -6 -5 -6 6 -1 11 2
17 5 13 3 -3 4 -12 1 -19z m93 12 c0 -5 -4 -10 -10 -10 -5 0 -10 5 -10 10 0 6
5 10 10 10 6 0 10 -4 10 -10z m-140 -10 c0 -5 -5 -10 -11 -10 -5 0 -7 5 -4 10
3 6 8 10 11 10 2 0 4 -4 4 -10z m917 -52 c-3 -7 -5 -2 -5 12 0 14 2 19 5 13 2
-7 2 -19 0 -25z m-816 -123 c-8 -83 -8 -85 -10 -29 -1 57 8 129 15 122 1 -2
-1 -44 -5 -93z m-653 58 c-1 -10 1 -24 5 -30 5 -8 3 -13 -4 -13 -10 0 -10 -3
-2 -11 13 -13 36 -3 28 12 -4 5 1 9 9 9 24 0 19 -17 -14 -54 -19 -21 -40 -33
-55 -33 -14 0 -25 2 -25 6 0 10 53 131 57 131 2 0 3 -8 1 -17z m55 10 c-7 -2
-19 -2 -25 0 -7 3 -2 5 12 5 14 0 19 -2 13 -5z m1261 -140 c5 -35 3 -43 -9
-43 -8 0 -15 -5 -15 -11 0 -10 -173 -215 -195 -231 -5 -4 -13 -4 -17 -2 -4 3
-8 -13 -8 -34 0 -48 -16 -63 -84 -79 l-51 -12 53 5 c42 4 52 2 52 -10 0 -20
-37 -44 -78 -52 -25 -5 -36 -2 -46 11 -7 11 -20 16 -28 12 -18 -7 -58 32 -51
50 2 7 -1 21 -7 33 -9 16 -9 25 0 35 9 11 7 18 -9 34 -22 22 -28 56 -11 66 6
3 10 15 10 26 0 16 -3 18 -19 10 -33 -18 -44 18 -14 51 19 22 33 23 33 4 0
-20 9 -22 107 -15 49 3 94 1 101 -4 18 -14 15 -44 -5 -56 -17 -9 -17 -10 0
-17 10 -3 21 -4 24 0 4 3 14 -1 24 -10 16 -14 20 -13 53 23 20 21 57 66 83
101 26 34 60 68 75 75 19 8 26 17 22 27 -3 8 -7 40 -10 70 -3 46 -2 50 5 20 5
-19 11 -54 15 -77z m60 75 c4 -17 2 -28 -4 -28 -5 0 -10 14 -10 32 0 36 4 35
14 -4z m-495 -32 c24 -28 24 -79 1 -103 -11 -13 -25 -23 -30 -23 -11 0 -14
123 -3 133 10 11 19 8 32 -7z m2172 -36 c33 0 45 -21 56 -97 6 -48 -3 -65 -49
-89 -26 -13 -33 -13 -72 5 -57 25 -74 53 -83 130 -6 63 -6 63 15 52 13 -7 22
-8 22 -2 0 14 31 19 58 9 13 -4 37 -8 53 -8z m-2144 -82 c-3 -8 -6 -5 -6 6 -1
11 2 17 5 13 3 -3 4 -12 1 -19z m-50 -40 c-3 -8 -6 -5 -6 6 -1 11 2 17 5 13 3
-3 4 -12 1 -19z m1138 -48 c3 -5 -1 -10 -9 -10 -20 0 -54 -67 -61 -119 -5 -46
-42 -131 -56 -131 -5 0 -14 -11 -19 -24 -5 -13 -26 -37 -47 -52 -21 -15 -50
-39 -65 -52 -14 -13 -29 -23 -32 -23 -11 3 -61 -39 -143 -116 -42 -40 -99 -84
-128 -98 -29 -13 -64 -40 -79 -59 -14 -19 -39 -42 -54 -50 -15 -8 -37 -20 -49
-27 -17 -9 -33 -8 -76 6 l-56 17 -55 -30 c-55 -30 -100 -33 -109 -8 -3 7 25
31 65 56 72 46 79 69 9 29 -34 -19 -44 -20 -72 -10 -22 8 -36 8 -45 1 -8 -8
-14 -8 -19 0 -3 5 2 13 12 16 57 18 65 24 53 39 -10 12 -8 21 13 48 13 18 26
41 28 52 4 17 99 83 99 68 0 -3 7 0 15 7 8 7 15 10 15 6 0 -3 12 -1 28 5 15 6
55 15 89 19 58 7 119 32 208 84 22 13 90 52 150 86 153 88 215 135 215 167 0
7 5 13 11 13 5 0 15 13 20 29 14 41 127 89 144 61z m-701 -22 c-5 -7 -7 -20
-6 -29 2 -9 -4 -22 -13 -29 -18 -15 -19 -7 -4 22 8 15 8 19 0 14 -17 -11 -13
5 6 26 18 20 30 17 17 -4z m-1664 3 c0 -6 -4 -13 -10 -16 -5 -3 -10 1 -10 9 0
9 5 16 10 16 6 0 10 -4 10 -9z m2803 -6 c-3 -9 -8 -14 -10 -11 -3 3 -2 9 2 15
9 16 15 13 8 -4z m-1173 -35 c0 -5 -5 -10 -11 -10 -6 0 -8 -7 -5 -16 6 -15
-62 -110 -72 -100 -2 3 12 24 32 47 24 29 32 45 25 50 -9 5 -8 11 2 23 16 18
29 20 29 6z m-74 -85 c-15 -19 -32 -35 -38 -35 -7 0 -5 7 4 18 8 9 23 27 34
39 29 36 29 17 0 -22z m-532 0 c4 -14 10 -25 15 -25 20 0 38 -30 37 -62 -1
-28 -5 -33 -28 -36 -32 -4 -56 27 -65 82 -9 54 28 92 41 41z m-1120 -84 c18
-29 56 -122 56 -138 0 -2 -9 -3 -21 -3 -15 0 -25 13 -40 48 -11 26 -27 59 -35
74 -17 32 -18 85 -1 91 6 2 14 -5 15 -16 2 -11 14 -36 26 -56z m1610 -35 c-16
-20 -33 -36 -38 -36 -4 0 6 16 23 35 37 43 41 58 6 25 -14 -13 -28 -20 -32
-17 -3 4 -15 -1 -27 -10 -20 -18 -20 -18 0 8 12 18 21 23 26 16 5 -9 11 -8 20
2 11 11 11 14 0 18 -10 4 -10 8 -2 19 10 11 15 10 32 -6 20 -18 20 -18 -8 -54z
m-1662 11 c26 -66 30 -87 18 -87 -14 0 -70 89 -70 112 0 36 34 19 52 -25z
m-72 -4 c0 -9 10 -30 23 -47 24 -32 40 -66 31 -66 -14 0 -57 36 -64 54 -9 21
-9 21 -9 0 -1 -12 6 -27 14 -34 18 -15 19 -30 2 -30 -7 0 -18 -9 -25 -20 -7
-11 -18 -20 -25 -20 -6 0 -38 -14 -71 -31 -47 -25 -60 -28 -67 -18 -13 22 -11
27 21 46 17 9 30 21 30 25 0 4 6 8 13 8 7 0 20 8 28 18 9 9 24 22 34 27 16 9
16 14 5 35 -12 22 -10 26 16 47 34 27 44 29 44 6z m1690 -17 c0 -2 -8 -10 -17
-17 -16 -13 -17 -12 -4 4 13 16 21 21 21 13z m-10 -50 c0 -2 -8 -10 -17 -17
-16 -13 -17 -12 -4 4 13 16 21 21 21 13z m1195 -26 c0 -20 -6 -26 -27 -28 -22
-3 -28 1 -28 15 0 11 6 25 12 31 20 20 43 10 43 -18z m-1260 -50 c-20 -20 -32
-27 -39 -20 -7 7 -2 17 14 33 l24 22 -18 -23 c-11 -12 -17 -25 -14 -28 3 -3
16 8 29 24 13 16 26 28 28 26 3 -3 -8 -18 -24 -34z m-155 10 c-22 -41 -131
-149 -146 -143 -16 6 -3 25 77 111 49 53 91 72 69 32z m71 -39 c-13 -18 -17
-31 -10 -33 6 -2 3 -13 -10 -28 -11 -14 -20 -20 -21 -13 0 6 5 15 10 18 6 3
10 12 10 18 0 7 -7 3 -15 -7 -8 -11 -18 -16 -22 -13 -6 6 64 87 75 87 2 0 -6
-13 -17 -29z m25 -39 c-17 -16 -18 -16 -5 5 7 12 15 20 18 17 3 -2 -3 -12 -13
-22z m-76 -42 c9 -5 19 -5 27 2 24 19 22 4 -2 -24 -29 -34 -61 -29 -44 5 10
18 9 20 -2 10 -18 -18 -34 -16 -19 2 14 17 20 18 40 5z m1458 -6 c36 -10 25
-24 -18 -24 -38 0 -54 13 -27 23 17 7 19 7 45 1z m-592 -31 c-7 -7 -26 7 -26
19 0 6 6 6 15 -2 9 -7 13 -15 11 -17z m-204 -83 c-5 -32 -26 -40 -36 -14 -9
23 -8 24 17 34 12 5 22 9 23 9 0 1 -1 -12 -4 -29z m-117 -80 c-43 -56 -79 -92
-60 -59 24 39 89 119 97 119 5 0 -11 -27 -37 -60z m1075 20 c0 -5 -8 -10 -17
-10 -15 0 -16 2 -3 10 19 12 20 12 20 0z m55 -10 c-14 -15 -21 -17 -32 -9 -22
19 -15 29 19 29 30 0 31 0 13 -20z m42 -207 c-55 -62 -106 -113 -113 -113 -8
0 -21 11 -30 25 -19 29 -16 34 80 124 27 25 57 54 65 64 9 10 26 30 39 43 12
14 22 30 23 37 0 7 8 -6 18 -28 l18 -39 -100 -113z m-1464 122 c1 -6 -11 -11
-28 -13 -29 -2 -29 -2 -10 13 20 16 35 16 38 0z m322 -15 c-3 -5 -23 -9 -43
-9 l-37 2 40 7 c22 4 41 8 43 9 2 0 0 -3 -3 -9z m-180 -62 c-21 -24 -41 -47
-45 -51 -4 -4 -6 9 -4 30 3 50 3 50 13 35 6 -11 14 -8 35 13 43 42 43 20 1
-27z m-76 -87 c-6 -2 -18 4 -27 13 -15 15 -15 15 10 4 15 -7 23 -15 17 -17z
m1464 -96 c-63 -68 -74 -73 -94 -49 -11 14 -3 26 66 92 79 76 80 77 83 49 3
-23 -8 -41 -55 -92z m-3702 34 c-9 -22 -10 -22 -10 -3 -1 11 2 24 6 27 12 12
14 0 4 -24z m166 -91 c-3 -8 -6 -5 -6 6 -1 11 2 17 5 13 3 -3 4 -12 1 -19z
m-14 -121 c-7 -112 -17 -124 -14 -15 2 67 10 123 16 116 2 -2 0 -47 -2 -101z
m-126 51 c-3 -8 -6 -5 -6 6 -1 11 2 17 5 13 3 -3 4 -12 1 -19z m2493 8 c0 -3
-4 -8 -10 -11 -5 -3 -10 -1 -10 4 0 6 5 11 10 11 6 0 10 -2 10 -4z m-193 -38
c-3 -8 -6 -5 -6 6 -1 11 2 17 5 13 3 -3 4 -12 1 -19z m-2300 -90 c-3 -8 -6 -5
-6 6 -1 11 2 17 5 13 3 -3 4 -12 1 -19z m180 0 c-3 -8 -6 -5 -6 6 -1 11 2 17
5 13 3 -3 4 -12 1 -19z m-180 -70 c-3 -8 -6 -5 -6 6 -1 11 2 17 5 13 3 -3 4
-12 1 -19z m117 7 c-4 -8 -8 -15 -10 -15 -2 0 -4 7 -4 15 0 8 4 15 10 15 5 0
7 -7 4 -15z m66 11 c0 -3 -4 -8 -10 -11 -5 -3 -10 -1 -10 4 0 6 5 11 10 11 6
0 10 -2 10 -4z m4145 -16 c3 -5 1 -10 -4 -10 -6 0 -11 5 -11 10 0 6 2 10 4 10
3 0 8 -4 11 -10z m20 -79 c3 -5 1 -12 -5 -16 -5 -3 -10 1 -10 9 0 18 6 21 15
7z m-4228 -103 c-2 -18 -4 -6 -4 27 0 33 2 48 4 33 2 -15 2 -42 0 -60z"/>
<path d="M9714 3662 c-6 -4 -13 -20 -16 -36 -5 -22 0 -34 20 -52 28 -27 31
-28 67 -14 18 7 25 15 21 25 -4 11 3 19 20 25 14 6 24 16 22 23 -5 13 -58 23
-58 10 0 -4 -14 -9 -31 -10 -27 -2 -30 1 -26 17 5 21 -1 25 -19 12z"/>
<path d="M8900 3052 c0 -13 43 -49 68 -57 29 -8 84 10 108 36 19 21 18 21 -18
0 -42 -26 -98 -21 -129 10 -21 21 -29 24 -29 11z"/>
<path d="M10786 3493 c-6 -14 -5 -15 5 -6 7 7 10 15 7 18 -3 3 -9 -2 -12 -12z"/>
<path d="M8176 2892 c-3 -6 -1 -14 5 -17 15 -10 25 3 12 16 -7 7 -13 7 -17 1z"/>
<path d="M8495 2960 c-3 -6 1 -7 9 -4 18 7 21 14 7 14 -6 0 -13 -4 -16 -10z"/>
<path d="M8447 2913 c-10 -3 -17 -11 -15 -19 4 -22 21 -19 30 5 4 12 6 20 5
20 -1 -1 -10 -3 -20 -6z"/>
<path d="M8832 2787 c7 -12 13 -40 13 -62 0 -22 5 -39 10 -38 6 1 10 -22 10
-52 0 -29 3 -51 8 -48 4 2 7 24 7 49 0 24 4 44 9 44 5 0 23 -11 40 -25 41 -35
39 -82 -7 -120 -57 -48 -89 -105 -97 -170 l-7 -60 35 50 c19 28 58 72 86 99
52 48 53 49 46 95 -5 39 -3 50 14 65 12 11 21 24 21 30 0 5 -20 29 -45 51 -31
29 -49 39 -59 33 -9 -5 -17 -4 -21 3 -4 6 2 13 14 16 26 7 28 23 3 23 -10 0
-22 4 -27 8 -6 5 -23 14 -38 20 -27 12 -27 11 -15 -11z"/>
<path d="M8417 2747 l-19 -32 26 24 c14 13 23 28 20 32 -7 12 -7 13 -27 -24z"/>
<path d="M9030 2670 c0 -5 5 -10 11 -10 5 0 7 5 4 10 -3 6 -8 10 -11 10 -2 0
-4 -4 -4 -10z"/>
<path d="M8458 2325 c5 -29 17 -32 26 -8 4 9 1 20 -6 25 -21 13 -25 9 -20 -17z"/>
<path d="M8317 2232 c-19 -20 -23 -37 -7 -27 10 6 33 45 27 45 -2 0 -11 -8
-20 -18z"/>
<path d="M8207 2013 c-42 -8 -75 -18 -72 -23 2 -4 24 -4 47 1 24 5 64 12 90
15 26 4 45 11 42 15 -6 11 -10 11 -107 -8z"/>
<path d="M8434 1971 c16 -3 33 -15 37 -26 4 -11 8 -15 8 -8 2 29 -12 43 -43
42 l-31 -1 29 -7z"/>
<path d="M8010 1890 c-20 -6 -21 -8 -5 -8 11 0 29 3 40 8 25 11 -1 11 -35 0z"/>
<path d="M7938 1873 c6 -2 18 -2 25 0 6 3 1 5 -13 5 -14 0 -19 -2 -12 -5z"/>
<path d="M7868 1844 c-38 -20 -36 -28 2 -9 17 9 30 18 30 20 0 7 -1 6 -32 -11z"/>
<path d="M7745 1769 c-44 -27 -76 -49 -71 -49 13 0 144 78 151 90 8 14 10 14
-80 -41z"/>
<path d="M8345 1800 c-3 -5 1 -10 10 -10 9 0 13 5 10 10 -3 6 -8 10 -10 10 -2
0 -7 -4 -10 -10z"/>
<path d="M7610 1706 c0 -20 11 -26 31 -15 26 14 24 24 -6 25 -14 1 -25 -4 -25
-10z"/>
<path d="M10350 2779 c0 -5 5 -7 10 -4 6 3 10 8 10 11 0 2 -4 4 -10 4 -5 0
-10 -5 -10 -11z"/>
<path d="M10653 2648 c-6 -7 -13 -22 -17 -33 -5 -16 -2 -15 14 5 18 23 25 40
16 40 -2 0 -8 -6 -13 -12z"/>
<path d="M10650 1931 c0 -5 6 -14 14 -20 10 -9 15 -8 19 3 3 8 3 17 0 20 -9 9
-33 7 -33 -3z"/>
<path d="M10607 1794 l-38 -44 41 0 c45 0 53 10 42 57 l-7 31 -38 -44z"/>
<path d="M9667 2420 c17 -19 43 -27 43 -14 0 10 -33 33 -47 34 -9 0 -7 -7 4
-20z"/>
<path d="M9710 2340 c0 -11 2 -20 4 -20 2 0 6 9 9 20 3 11 1 20 -4 20 -5 0 -9
-9 -9 -20z"/>
<path d="M9820 2309 c0 -5 5 -7 10 -4 6 3 10 8 10 11 0 2 -4 4 -10 4 -5 0 -10
-5 -10 -11z"/>
<path d="M10125 2290 c3 -5 27 -9 53 -9 42 1 44 2 17 9 -45 11 -77 11 -70 0z"/>
<path d="M9865 2180 c3 -5 8 -10 11 -10 2 0 4 5 4 10 0 6 -5 10 -11 10 -5 0
-7 -4 -4 -10z"/>
<path d="M9810 2079 c0 -5 5 -7 10 -4 6 3 10 8 10 11 0 2 -4 4 -10 4 -5 0 -10
-5 -10 -11z"/>
<path d="M9940 1930 c0 -5 5 -10 11 -10 5 0 7 5 4 10 -3 6 -8 10 -11 10 -2 0
-4 -4 -4 -10z"/>
<path d="M1862 2840 l-21 -50 44 0 44 0 -21 48 c-11 26 -22 48 -23 50 -1 1
-12 -20 -23 -48z"/>
<path d="M3560 2665 c0 -39 3 -46 18 -43 13 2 17 13 17 43 0 30 -4 41 -17 43
-15 3 -18 -4 -18 -43z"/>
<path d="M7155 1920 c-3 -5 1 -10 9 -10 9 0 16 5 16 10 0 6 -4 10 -9 10 -6 0
-13 -4 -16 -10z"/>
<path d="M9051 1299 c-12 -12 -20 -23 -18 -26 8 -8 44 15 51 32 8 21 -6 19
-33 -6z"/>
<path d="M9135 1150 c-3 -5 -1 -10 4 -10 6 0 11 5 11 10 0 6 -2 10 -4 10 -3 0
-8 -4 -11 -10z"/>
</g>
</svg>
